<?xml version="1.0" encoding="UTF-8"?>
<svg xmlns="http://www.w3.org/2000/svg" width="24" height="25" viewBox="0 0 24 25" fill="none">
  <path d="M2.00006 20.9485H22.0001M8.00006 22.9692C8.63827 20.3899 9.31721 17.9135 9.86792 15.6056M9.86792 15.6056C11.043 10.6811 11.6342 6.52404 10.0001 3.77221C7.74043 -0.0329491 7.24373 10.6522 9.86792 15.6056ZM9.86792 15.6056C10.7277 17.2286 11.9225 18.2362 13.5001 17.9174C16 17.4121 15 13.8758 14.0001 11.8551C12.8821 9.59593 17.2929 16.2285 18 13.3707C18.5001 11.35 18.5001 9.83439 21.0001 9.83439M3.00006 14.9692L5.91796 17.9174M5.91796 14.9692L3.00006 17.9174" stroke="#4B61DD" stroke-width="1.5" stroke-linecap="round"></path>
</svg>
