<svg width="24" height="24" viewBox="0 0 24 24" fill="none" xmlns="http://www.w3.org/2000/svg">
<path fill-rule="evenodd" clip-rule="evenodd" d="M2.2 0C0.984974 0 0 0.984974 0 2.2V21.8C0 23.015 0.984974 24 2.2 24H21.8C23.015 24 24 23.015 24 21.8V2.2C24 0.984974 23.015 0 21.8 0H2.2ZM7.42857 20V9.14285H4V20H7.42857ZM5.71429 4.57143C4.68571 4.57143 4 5.18286 4 5.98286C4 6.78286 4.68571 7.42857 5.71429 7.42857C6.78857 7.42857 7.42857 6.78286 7.42857 5.98286C7.38857 5.18286 6.74286 4.57143 5.71429 4.57143ZM16.5714 20H20V13.8629C20 10.7029 18.16 9.14285 15.8914 9.14285C13.6743 9.14285 12.5714 10.6057 12.5714 10.6057V9.14285H9.14286V20H12.5714V14.2857C12.5714 13.1543 13.1429 11.9771 14.5257 11.9771H14.5714C16 12 16.5714 13.1429 16.5714 14.2857V20Z" fill="#545465"/>
</svg>
