<?xml version="1.0" encoding="UTF-8"?><svg xmlns="http://www.w3.org/2000/svg" xmlns:xlink="http://www.w3.org/1999/xlink" viewBox="0 0 190 190"><defs><style>.j{fill:url(#d);}.k{fill:url(#h);}.l{fill:#af9bff;}.m{filter:url(#e);}</style><linearGradient id="d" x1="128.56" y1="-25.78" x2="66.24" y2="-197.02" gradientTransform="translate(0 -23) scale(1 -1)" gradientUnits="userSpaceOnUse"><stop offset="0" stop-color="#9870ff"/><stop offset=".8" stop-color="#7c4dff"/></linearGradient><filter id="e" filterUnits="userSpaceOnUse"><feOffset dx="7" dy="15"/><feGaussianBlur result="f" stdDeviation="8"/><feFlood flood-color="#311b92" flood-opacity=".2"/><feComposite in2="f" operator="in"/><feComposite in="SourceGraphic"/></filter><linearGradient id="h" x1="95" y1="151.03" x2="95" y2="38.97" gradientTransform="matrix(1, 0, 0, 1, 0, 0)" gradientUnits="userSpaceOnUse"><stop offset="0" stop-color="#e4e3fc"/><stop offset=".74" stop-color="#f7f7f7"/></linearGradient></defs><g id="a"/><g id="b"><g id="c"><g><rect class="j" x="0" width="190" height="190" rx="39.58" ry="39.58"/><g class="m"><path id="g" class="l" d="M138.67,78.51l-28.57-3.65-3.59-28.35c-.79-6.3-7-10.54-13.53-10.54-6.46,0-12.65,4.07-13.48,10.35l-3.65,28.57-28.35,3.59c-6.43,.84-10.54,7-10.54,13.53s3.89,12.69,10.35,13.48l28.57,3.65,3.59,28.35c.79,6.55,7,10.54,13.53,10.54,6.46,0,12.73-4.39,13.48-10.35l3.65-28.57,28.35-3.59c6.48-.82,10.54-7,10.54-13.53s-4.07-12.69-10.35-13.48Z"/><path id="i" class="k" d="M140.67,81.51l-28.57-3.65-3.59-28.35c-.79-6.3-7-10.54-13.53-10.54-6.46,0-12.65,4.07-13.48,10.35l-3.65,28.57-28.35,3.59c-6.43,.84-10.54,7-10.54,13.53s3.89,12.69,10.35,13.48l28.57,3.65,3.59,28.35c.79,6.55,7,10.54,13.53,10.54,6.46,0,12.73-4.39,13.48-10.35l3.65-28.57,28.35-3.59c6.48-.82,10.54-7,10.54-13.53s-4.07-12.69-10.35-13.48Z"/></g></g></g></g></svg>