<?xml version="1.0" encoding="UTF-8"?><svg xmlns="http://www.w3.org/2000/svg" xmlns:xlink="http://www.w3.org/1999/xlink" viewBox="0 0 190 190"><defs><style>.j{fill:url(#d);}.k{fill:url(#i);}.l{fill:#f2a7a7;}.m{filter:url(#e);}</style><linearGradient id="d" x1="128.56" y1="-25.78" x2="66.24" y2="-197.02" gradientTransform="translate(0 -23) scale(1 -1)" gradientUnits="userSpaceOnUse"><stop offset="0" stop-color="#fb4a47"/><stop offset=".8" stop-color="#f22929"/></linearGradient><filter id="e" filterUnits="userSpaceOnUse"><feOffset dx="7" dy="15"/><feGaussianBlur result="f" stdDeviation="8"/><feFlood flood-color="#a61c1c" flood-opacity=".2"/><feComposite in2="f" operator="in"/><feComposite in="SourceGraphic"/></filter><linearGradient id="i" x1="95" y1="148.11" x2="95" y2="41.89" gradientTransform="matrix(1, 0, 0, 1, 0, 0)" gradientUnits="userSpaceOnUse"><stop offset="0" stop-color="#fce3f0"/><stop offset=".74" stop-color="#f7f7f7"/></linearGradient></defs><g id="a"/><g id="b"><g id="c"><g><rect class="j" x="0" width="190" height="190" rx="39.58" ry="39.58"/><g class="m"><g id="g"><path class="l" d="M56.08,144.11l69.8-24.2c12.66-4.02,21.7-14.41,21.7-27.85,0-13.3-8.94-23.61-21.31-27.75L56.08,40c-6.8-2.39-14.26-.72-17.85,5.51h0c-3.59,6.22-1.35,13.38,4.16,18.21l32.32,28.34-32.32,28.34c-5.51,4.81-7.75,11.99-4.16,18.21h0c3.59,6.22,11,7.96,17.85,5.51Z"/></g><g id="h"><path class="k" d="M59.05,147.04l69.8-24.2c12.66-4.02,21.7-14.41,21.7-27.85,0-13.3-8.94-23.61-21.31-27.75L59.05,42.93c-6.8-2.39-14.26-.72-17.85,5.51h0c-3.59,6.22-1.35,13.38,4.16,18.21l32.32,28.34-32.32,28.34c-5.51,4.81-7.75,11.99-4.16,18.21h0c3.59,6.22,11,7.96,17.85,5.51Z"/></g></g></g></g></g></svg>