<?xml version="1.0" encoding="UTF-8"?><svg xmlns="http://www.w3.org/2000/svg" xmlns:xlink="http://www.w3.org/1999/xlink" viewBox="0 0 190 190"><defs><style>.k{fill:url(#d);}.l{fill:url(#i);}.m{fill:url(#j);}.n{fill:#8fdf9e;}.o{filter:url(#e);}</style><linearGradient id="d" x1="128.56" y1="-455.78" x2="66.24" y2="-627.02" gradientTransform="translate(0 -453) scale(1 -1)" gradientUnits="userSpaceOnUse"><stop offset="0" stop-color="#00c853"/><stop offset=".8" stop-color="#00ad24"/></linearGradient><filter id="e" filterUnits="userSpaceOnUse"><feOffset dx="7" dy="15"/><feGaussianBlur result="f" stdDeviation="8"/><feFlood flood-color="#008a00" flood-opacity=".2"/><feComposite in2="f" operator="in"/><feComposite in="SourceGraphic"/></filter><linearGradient id="i" x1="92.25" y1="155" x2="92.25" y2="141.57" gradientTransform="translate(184.5 296.57) rotate(-180)" gradientUnits="userSpaceOnUse"><stop offset="0" stop-color="#e3fce6"/><stop offset=".74" stop-color="#f7f7f7"/></linearGradient><linearGradient id="j" x1="98.1" y1="132.33" x2="98.1" y2="35" gradientTransform="matrix(1, 0, 0, 1, 0, 0)" xlink:href="#i"/></defs><g id="a"/><g id="b"><g id="c"><g><rect class="k" x="0" width="190" height="190" rx="39.58" ry="39.58"/><g class="o"><g id="g"><rect class="n" x="47.51" y="138.57" width="85.49" height="13.43" rx="6.72" ry="6.72" transform="translate(180.5 290.57) rotate(180)"/><path class="n" d="M137.63,44.91l-30.91,70.08c-3.67,7.61-10.1,14.33-19.51,14.33-9.32,0-16.1-6.08-19.44-14.07l-13.3-28.09c-1.73-4.72-.5-9.42,3.86-11.79h0c4.36-2.37,9.25-1.11,12.76,2.75l13.48,19.9,36.45-62.14c3.2-3.96,8.13-4.89,12.76-2.75h0c4.36,2.37,5.83,7.14,3.86,11.79Z"/></g><g id="h"><rect class="l" x="49.51" y="141.57" width="85.49" height="13.43" rx="6.72" ry="6.72" transform="translate(184.5 296.57) rotate(180)"/><path class="m" d="M139.63,47.91l-30.91,70.08c-3.67,7.61-10.1,14.33-19.51,14.33-9.32,0-16.1-6.08-19.44-14.07l-13.3-28.09c-1.73-4.72-.5-9.42,3.86-11.79h0c4.36-2.37,9.25-1.11,12.76,2.75l13.48,19.9,36.45-62.14c3.2-3.96,8.13-4.89,12.76-2.75h0c4.36,2.37,5.83,7.14,3.86,11.79Z"/></g></g></g></g></g></svg>