<?xml version="1.0" encoding="UTF-8"?><svg xmlns="http://www.w3.org/2000/svg" xmlns:xlink="http://www.w3.org/1999/xlink" viewBox="0 0 190 190"><defs><style>.j{fill:url(#d);}.k{fill:url(#i);}.l{fill:#ffc400;}.m{filter:url(#e);}</style><linearGradient id="d" x1="128.56" y1="-25.78" x2="66.24" y2="-197.02" gradientTransform="translate(0 -23) scale(1 -1)" gradientUnits="userSpaceOnUse"><stop offset="0" stop-color="#ffb402"/><stop offset=".8" stop-color="#ff9100"/></linearGradient><filter id="e" filterUnits="userSpaceOnUse"><feOffset dx="7" dy="15"/><feGaussianBlur result="f" stdDeviation="8"/><feFlood flood-color="#ff661f" flood-opacity=".2"/><feComposite in2="f" operator="in"/><feComposite in="SourceGraphic"/></filter><linearGradient id="i" x1="95" y1="157.76" x2="95" y2="32.24" gradientTransform="matrix(1, 0, 0, 1, 0, 0)" gradientUnits="userSpaceOnUse"><stop offset="0" stop-color="#fcf3e3"/><stop offset=".74" stop-color="#f7f7f7"/></linearGradient></defs><g id="a"/><g id="b"><g id="c"><g><rect class="j" width="190" height="190" rx="39.58" ry="39.58"/><g class="m"><g id="g"><path class="l" d="M144.76,45.9l-37.58,90.38c-4.47,9.82-12.28,18.48-23.72,18.48-11.33,0-19.58-7.84-23.64-18.15l-20.7-59.79c-2.1-6.09-.61-12.14,4.69-15.21h0c5.3-3.06,11.24-1.43,15.51,3.54l24.14,27.53,41.11-58.46c3.89-5.11,9.88-6.3,15.51-3.54h0c5.3,3.06,7.09,9.21,4.69,15.21Z"/></g><g id="h"><path class="k" d="M147.76,48.9l-37.58,90.38c-4.47,9.82-12.28,18.48-23.72,18.48-11.33,0-19.58-7.84-23.64-18.15l-20.7-59.79c-2.1-6.09-.61-12.14,4.69-15.21h0c5.3-3.06,11.24-1.43,15.51,3.54l24.14,27.53,41.11-58.46c3.89-5.11,9.88-6.3,15.51-3.54h0c5.3,3.06,7.09,9.21,4.69,15.21Z"/></g></g></g></g></g></svg>