<?xml version="1.0" encoding="UTF-8"?><svg xmlns="http://www.w3.org/2000/svg" xmlns:xlink="http://www.w3.org/1999/xlink" viewBox="0 0 190 190"><defs><style>.j{fill:url(#d);}.k{fill:url(#h);}.l{fill:#bce1ff;}.m{filter:url(#e);}</style><linearGradient id="d" x1="128.56" y1="-455.78" x2="66.24" y2="-627.02" gradientTransform="translate(0 -453) scale(1 -1)" gradientUnits="userSpaceOnUse"><stop offset="0" stop-color="#019aff"/><stop offset=".8" stop-color="#2979ff"/></linearGradient><filter id="e" filterUnits="userSpaceOnUse"><feOffset dx="7" dy="15"/><feGaussianBlur result="f" stdDeviation="8"/><feFlood flood-color="#0b48b3" flood-opacity=".2"/><feComposite in2="f" operator="in"/><feComposite in="SourceGraphic"/></filter><linearGradient id="h" x1="95" y1="151.03" x2="95" y2="38.97" gradientTransform="matrix(1, 0, 0, 1, 0, 0)" gradientUnits="userSpaceOnUse"><stop offset="0" stop-color="#e3f0fc"/><stop offset=".74" stop-color="#f7f7f7"/></linearGradient></defs><g id="a"/><g id="b"><g id="c"><g><rect class="j" width="190" height="190" rx="39.58" ry="39.58"/><g class="m"><path id="g" class="l" d="M136.36,119.75h-42.34c-15.8,0-28.65-12.85-28.65-28.65s12.85-28.65,28.65-28.65,28.65,12.85,28.65,28.65v2.87c0,7.55,6.14,13.69,13.69,13.69s13.69-6.14,13.69-13.69v-3.2c-.09-14.9-5.96-28.89-16.52-39.4-10.57-10.51-24.6-16.3-39.51-16.3-30.89,0-56.03,25.13-56.03,56.03s25.13,56.03,56.03,56.03h42.34c7.55,0,13.69-6.14,13.69-13.69s-6.14-13.69-13.69-13.69Z"/><path id="i" class="k" d="M137.34,123.65h-42.34c-15.8,0-28.65-12.85-28.65-28.65s12.85-28.65,28.65-28.65,28.65,12.85,28.65,28.65v2.87c0,7.55,6.14,13.69,13.69,13.69s13.69-6.14,13.69-13.69v-3.2c-.09-14.9-5.96-28.89-16.52-39.4-10.57-10.51-24.6-16.3-39.51-16.3-30.89,0-56.03,25.13-56.03,56.03s25.13,56.03,56.03,56.03h42.34c7.55,0,13.69-6.14,13.69-13.69s-6.14-13.69-13.69-13.69Z"/></g></g></g></g></svg>