<?xml version="1.0" encoding="UTF-8"?><svg xmlns="http://www.w3.org/2000/svg" xmlns:xlink="http://www.w3.org/1999/xlink" viewBox="0 0 190 190"><defs><style>.j{fill:url(#d);}.k{fill:url(#i);}.l{fill:#b1e5ff;}.m{filter:url(#e);}</style><linearGradient id="d" x1="128.56" y1="-25.78" x2="66.24" y2="-197.02" gradientTransform="translate(0 -23) scale(1 -1)" gradientUnits="userSpaceOnUse"><stop offset="0" stop-color="#40c3ff"/><stop offset=".8" stop-color="#00a8fd"/></linearGradient><filter id="e" filterUnits="userSpaceOnUse"><feOffset dx="7" dy="15"/><feGaussianBlur result="f" stdDeviation="8"/><feFlood flood-color="#0055a2" flood-opacity=".2"/><feComposite in2="f" operator="in"/><feComposite in="SourceGraphic"/></filter><linearGradient id="i" x1="95" y1="149.55" x2="95" y2="40.45" gradientTransform="matrix(1, 0, 0, 1, 0, 0)" gradientUnits="userSpaceOnUse"><stop offset="0" stop-color="#e3f0fc"/><stop offset=".74" stop-color="#f7f7f7"/></linearGradient></defs><g id="a"/><g id="b"><g id="c"><g><rect class="j" x="0" width="190" height="190" rx="39.58" ry="39.58"/><g class="m"><g id="g"><path class="l" d="M143.33,127.34l-23.77-68.55c-3.95-12.43-14.15-21.31-27.35-21.31-13.06,0-23.19,8.78-27.25,20.93l-23.87,68.93c-2.35,6.68-.7,14,5.41,17.53h0c6.11,3.53,13.14,1.33,17.89-4.08l27.83-31.74,27.83,31.74c4.72,5.41,11.77,7.61,17.89,4.08h0c6.11-3.53,7.82-10.8,5.41-17.53Z"/></g><g id="h"><path class="k" d="M146.11,130.31l-23.77-68.55c-3.95-12.43-14.15-21.31-27.35-21.31-13.06,0-23.19,8.78-27.25,20.93l-23.87,68.93c-2.35,6.68-.7,14,5.41,17.53h0c6.11,3.53,13.14,1.33,17.89-4.08l27.83-31.74,27.83,31.74c4.72,5.41,11.77,7.61,17.89,4.08h0c6.11-3.53,7.82-10.8,5.41-17.53Z"/></g></g></g></g></g></svg>