<?xml version="1.0" encoding="UTF-8"?>
<svg xmlns="http://www.w3.org/2000/svg" width="24" height="24" viewBox="0 0 24 24" fill="none">
  <path d="M9 8H10.1M10.1 8C13.6 8 15 9.4 15 12.9M10.1 8H7.9C4.4 8 3 9.4 3 12.9V17.1C3 20.6 4.4 22 7.9 22H10.1C13.6 22 15 20.6 15 17.1V12.9M15 12.9V16M6.14601 8.1527C6.58976 5.92023 8.05169 5 10.9005 5H13.1005C16.6005 5 18.0005 6.4 18.0005 9.9V14.1C18.0005 16.9506 17.0855 18.3975 14.85 18.8403M9.16997 5.14695C9.61057 2.90482 11.0457 2 13.9002 2H16.1002C19.6002 2 21.0002 3.4 21.0002 6.9V11.1C21.0002 13.9508 20.0822 15.4188 17.8463 15.8614M8.75 12H6.5M9.5 15H6.5" stroke="#4B61DD" stroke-width="1.5" stroke-linecap="round" stroke-linejoin="round"></path>
</svg>
