<?xml version="1.0" encoding="UTF-8"?>
<svg xmlns="http://www.w3.org/2000/svg" width="24" height="24" viewBox="0 0 24 24" fill="none">
  <path d="M20.0001 22V22.75H20.0001L20.0001 22ZM6.69408 4.22962L7.14408 4.82962V4.82962L6.69408 4.22962ZM10.6002 2.2L11.0502 1.6V1.6L10.6002 2.2ZM13.3064 4.22962L13.7564 3.62962V3.62962L13.3064 4.22962ZM14.6135 4.13673L15.1438 4.66706V4.66706L14.6135 4.13673ZM18.0002 3.16421L18.7502 3.16422V3.16421H18.0002ZM5.00018 14.0833C5.00018 14.4975 5.33597 14.8333 5.75018 14.8333C6.1644 14.8333 6.50018 14.4975 6.50018 14.0833H5.00018ZM8.20355 11.2317C8.00013 10.8709 7.54272 10.7433 7.1819 10.9467C6.82108 11.1501 6.69347 11.6076 6.89689 11.9684L8.20355 11.2317ZM8.29685 14.4517C8.50027 14.8125 8.95768 14.9401 9.3185 14.7367C9.67933 14.5332 9.80693 14.0758 9.60351 13.715L8.29685 14.4517ZM10.3335 16.75C10.3335 17.1642 10.6693 17.5 11.0835 17.5C11.4977 17.5 11.8335 17.1642 11.8335 16.75H10.3335ZM22 20H21.25V20L22 20ZM18 13V12.25C17.8011 12.25 17.6103 12.329 17.4697 12.4697C17.329 12.6103 17.25 12.8011 17.25 13L18 13ZM6.00024 21.25C4.90063 21.25 4.10897 20.9231 3.59307 20.4072C3.07718 19.8913 2.75024 19.0996 2.75024 18H1.25024C1.25024 19.4004 1.67331 20.6087 2.53241 21.4678C3.39152 22.3269 4.59986 22.75 6.00024 22.75V21.25ZM3.17702 2.98744L4.85664 4.66706L5.9173 3.6064L4.23768 1.92678L3.17702 2.98744ZM7.14408 4.82962L9.85024 2.8L8.95024 1.6L6.24408 3.62962L7.14408 4.82962ZM10.1502 2.8L12.8564 4.82962L13.7564 3.62962L11.0502 1.6L10.1502 2.8ZM15.1438 4.66706L16.8235 2.98744L15.7628 1.92678L14.0832 3.6064L15.1438 4.66706ZM16.8235 2.98744C16.981 2.82995 17.2502 2.94149 17.2502 3.16421H18.7502C18.7502 1.60513 16.8652 0.824336 15.7628 1.92678L16.8235 2.98744ZM12.8564 4.82962C13.5531 5.35216 14.528 5.28287 15.1438 4.66706L14.0832 3.6064C13.9952 3.69437 13.8559 3.70427 13.7564 3.62962L12.8564 4.82962ZM9.85024 2.8C9.93913 2.73333 10.0614 2.73333 10.1502 2.8L11.0502 1.6C10.428 1.13333 9.57247 1.13333 8.95024 1.6L9.85024 2.8ZM4.85664 4.66706C5.47246 5.28287 6.44737 5.35216 7.14408 4.82962L6.24408 3.62962C6.14455 3.70427 6.00528 3.69437 5.9173 3.6064L4.85664 4.66706ZM2.75024 3.16421C2.75024 2.94149 3.01953 2.82994 3.17702 2.98744L4.23768 1.92678C3.13524 0.82434 1.25024 1.60513 1.25024 3.16421H2.75024ZM2.75024 18V3.16421H1.25024V18H2.75024ZM6.50018 9.35001C6.50018 9.43422 6.4344 9.5 6.3502 9.5V8C5.60598 8 5.00018 8.60579 5.00018 9.35001H6.50018ZM6.3502 9.5H7.88623V8H6.3502V9.5ZM7.88623 9.5C8.19195 9.5 8.46685 9.7339 8.46685 10.175H9.96685C9.96685 9.04413 9.15255 8 7.88623 8V9.5ZM8.46685 10.175C8.46685 10.6162 8.19194 10.8501 7.88623 10.8501V12.3501C9.15255 12.3501 9.96685 11.3059 9.96685 10.175H8.46685ZM7.88623 10.8501H5.75018V12.3501H7.88623V10.8501ZM6.50018 11.6001V9.35001H5.00018V11.6001H6.50018ZM5.00018 11.6001V14.0833H6.50018V11.6001H5.00018ZM6.89689 11.9684L8.29685 14.4517L9.60351 13.715L8.20355 11.2317L6.89689 11.9684ZM11.8335 12.0167C11.8335 12.1009 11.7677 12.1667 11.6835 12.1667V10.6667C10.9393 10.6667 10.3335 11.2725 10.3335 12.0167H11.8335ZM11.6835 12.1667H13.2196V10.6667H11.6835V12.1667ZM13.2196 12.1667C13.5253 12.1667 13.8002 12.4006 13.8002 12.8417H15.3002C15.3002 11.7108 14.4859 10.6667 13.2196 10.6667V12.1667ZM13.8002 12.8417C13.8002 13.2828 13.5253 13.5167 13.2196 13.5167V15.0167C14.4859 15.0167 15.3002 13.9726 15.3002 12.8417H13.8002ZM13.2196 13.5167H11.0835V15.0167H13.2196V13.5167ZM11.8335 14.2667V12.0167H10.3335V14.2667H11.8335ZM10.3335 14.2667V16.75H11.8335V14.2667H10.3335ZM17.2501 20C17.2501 20.5801 17.3629 21.279 17.8145 21.8435C18.2916 22.44 19.0346 22.75 20.0001 22.75V21.25C19.3657 21.25 19.1086 21.06 18.9858 20.9065C18.8374 20.721 18.7501 20.4199 18.7501 20H17.2501ZM6.00024 22.75H20.0001V21.25H6.00024V22.75ZM17.2502 3.16421L17.2501 20L18.7501 20L18.7502 3.16422L17.2502 3.16421ZM22.75 20V15.58H21.25V20H22.75ZM22.75 15.58C22.75 14.6294 22.446 13.7803 21.8328 13.1672C21.2197 12.554 20.3705 12.25 19.42 12.25V13.75C20.0494 13.75 20.4903 13.946 20.7722 14.2278C21.054 14.5097 21.25 14.9506 21.25 15.58H22.75ZM19.42 12.25H18V13.75H19.42V12.25ZM17.25 13L17.2501 20L18.7501 20L18.75 13L17.25 13ZM20.0001 22.75C20.6314 22.75 21.1547 22.59 21.5724 22.3115C21.9854 22.0361 22.2514 21.6743 22.4209 21.3354C22.5889 20.9993 22.6691 20.6724 22.7086 20.4358C22.7286 20.3157 22.7389 20.214 22.7442 20.1393C22.7469 20.1019 22.7483 20.0709 22.7491 20.0474C22.7495 20.0356 22.7497 20.0257 22.7498 20.0178C22.7499 20.0138 22.7499 20.0103 22.75 20.0074C22.75 20.0059 22.75 20.0045 22.75 20.0033C22.75 20.0027 22.75 20.0021 22.75 20.0015C22.75 20.0012 22.75 20.0008 22.75 20.0007C22.75 20.0003 22.75 20 22 20C21.25 20 21.25 19.9997 21.25 19.9993C21.25 19.9992 21.25 19.9989 21.25 19.9987C21.25 19.9982 21.25 19.9978 21.25 19.9975C21.25 19.9967 21.25 19.9961 21.25 19.9955C21.25 19.9945 21.25 19.9939 21.25 19.9937C21.25 19.9933 21.25 19.9946 21.2499 19.9975C21.2497 20.0033 21.2492 20.0153 21.248 20.0325C21.2455 20.0673 21.2402 20.1218 21.229 20.1892C21.2059 20.3276 21.1612 20.5007 21.0792 20.6646C20.9987 20.8256 20.8897 20.9638 20.7403 21.0635C20.5956 21.16 20.3689 21.25 20.0001 21.25L20.0001 22.75ZM17.2501 20C17.2501 20.4534 17.38 21.1167 17.7915 21.6882C18.2305 22.298 18.9557 22.75 20.0001 22.75V21.25C19.4446 21.25 19.1697 21.0353 19.0088 20.8118C18.8203 20.55 18.7501 20.2133 18.7501 20H17.2501Z" fill="#4B61DD"></path>
</svg>
