<?xml version="1.0" encoding="UTF-8"?>
<svg xmlns="http://www.w3.org/2000/svg" width="24" height="24" viewBox="0 0 24 24" fill="none">
  <path d="M2.07006 4.6L2.80073 4.76918L2.80078 4.76896L2.07006 4.6ZM8.87006 4.6L8.13887 4.76695L8.13938 4.76918L8.87006 4.6ZM6.93006 9.42L7.44697 9.96342L7.44814 9.9623L6.93006 9.42ZM4.00006 9.42L3.4795 9.96002L3.48666 9.96674L4.00006 9.42ZM15.0701 16.6L15.8007 16.7692L15.8008 16.769L15.0701 16.6ZM21.9101 16.6L21.1793 16.769L21.1794 16.7692L21.9101 16.6ZM19.9601 21.42L19.4444 20.8754L19.4431 20.8766L19.9601 21.42ZM17.0201 21.42L16.5044 21.9646L16.5067 21.9667L17.0201 21.42ZM12.0001 4.25001C11.5858 4.25001 11.2501 4.58579 11.2501 5.00001C11.2501 5.41422 11.5858 5.75001 12.0001 5.75001V4.25001ZM16.0001 8.51L16.4939 9.07448L16.4948 9.07368L16.0001 8.51ZM8.01006 15.5L8.50249 16.0657L8.50388 16.0645L8.01006 15.5ZM12.0001 19.75C12.4143 19.75 12.7501 19.4142 12.7501 19C12.7501 18.5858 12.4143 18.25 12.0001 18.25V19.75ZM5.48627 4.75001C5.07206 4.75001 4.73627 5.08579 4.73627 5.50001C4.73627 5.91422 5.07206 6.25 5.48627 6.25V4.75001ZM5.49783 6.25C5.91204 6.25 6.24783 5.91422 6.24783 5.50001C6.24783 5.08579 5.91204 4.75001 5.49783 4.75001V6.25ZM18.4863 16.75C18.0721 16.75 17.7363 17.0858 17.7363 17.5C17.7363 17.9142 18.0721 18.25 18.4863 18.25V16.75ZM18.4978 18.25C18.912 18.25 19.2478 17.9142 19.2478 17.5C19.2478 17.0858 18.912 16.75 18.4978 16.75V18.25ZM2.80078 4.76896C3.10617 3.44813 4.24551 2.755 5.47381 2.755C6.70197 2.755 7.83765 3.44769 8.13887 4.76695L9.60124 4.43306C9.11246 2.29232 7.24814 1.255 5.47381 1.255C3.6996 1.255 1.83394 2.29188 1.33933 4.43105L2.80078 4.76896ZM8.13938 4.76918C8.51257 6.38104 7.50057 7.8377 6.41197 8.87771L7.44814 9.9623C8.59954 8.86231 10.1675 6.87897 9.60073 4.43083L8.13938 4.76918ZM6.41315 8.87659C5.88692 9.37714 5.0491 9.37626 4.51345 8.87327L3.48666 9.96674C4.59101 11.0038 6.33319 11.0229 7.44697 9.96342L6.41315 8.87659ZM4.52057 8.88003C3.43999 7.8384 2.42737 6.38178 2.80073 4.76918L1.33938 4.43083C0.772744 6.87823 2.34012 8.86161 3.47954 9.95997L4.52057 8.88003ZM15.8008 16.769C16.1056 15.4507 17.2499 14.755 18.4901 14.755C19.7302 14.755 20.8745 15.4507 21.1793 16.769L22.6408 16.4311C22.1456 14.2893 20.2699 13.255 18.4901 13.255C16.7102 13.255 14.8345 14.2893 14.3393 16.4311L15.8008 16.769ZM21.1794 16.7692C21.5524 18.3803 20.541 19.837 19.4444 20.8754L20.4757 21.9646C21.6391 20.863 23.2077 18.8797 22.6407 16.4308L21.1794 16.7692ZM19.4431 20.8766C18.9169 21.3772 18.0691 21.3762 17.5335 20.8733L16.5067 21.9667C17.611 23.0038 19.3632 23.0229 20.477 21.9634L19.4431 20.8766ZM17.5357 20.8754C16.4391 19.837 15.4277 18.3803 15.8007 16.7692L14.3394 16.4308C13.7724 18.8797 15.341 20.863 16.5044 21.9646L17.5357 20.8754ZM12.0001 5.75001H14.6801V4.25001H12.0001V5.75001ZM14.6801 5.75001C15.8362 5.75001 16.3766 7.18156 15.5053 7.94633L16.4948 9.07368C18.4035 7.39845 17.2239 4.25001 14.6801 4.25001V5.75001ZM15.5062 7.94553L7.51623 14.9355L8.50388 16.0645L16.4939 9.07448L15.5062 7.94553ZM7.51762 14.9343C5.60362 16.6005 6.78785 19.75 9.32006 19.75V18.25C8.17226 18.25 7.6365 16.8195 8.50249 16.0657L7.51762 14.9343ZM9.32006 19.75H12.0001V18.25H9.32006V19.75ZM5.48627 6.25H5.49783V4.75001H5.48627V6.25ZM18.4863 18.25H18.4978V16.75H18.4863V18.25Z" fill="#4B61DD"></path>
</svg>
