<?xml version="1.0" encoding="UTF-8"?>
<svg xmlns="http://www.w3.org/2000/svg" width="24" height="24" viewBox="0 0 24 24" fill="none">
  <path d="M11 22H9C4 22 2 20 2 15V9C2 4 4 2 9 2H15C20 2 22 4 22 9V11M13.9998 15.2643C13.3866 15.0929 12.7311 15 12.0544 15C9.34529 15 7.04861 16.4701 6.27686 18.5M16.2881 17.7499L17.2162 18.678L19.2131 16.8312M15.5041 8.5C15.5041 10.433 13.9386 12 12.0074 12C10.0763 12 8.51074 10.433 8.51074 8.5C8.51074 6.567 10.0763 5 12.0074 5C13.9386 5 15.5041 6.567 15.5041 8.5ZM21.5 17.75C21.5 18.4531 21.3031 19.1187 20.9563 19.6812C20.7594 20.0187 20.5063 20.3188 20.2156 20.5625C19.5594 21.1531 18.6969 21.5 17.75 21.5C16.3812 21.5 15.1906 20.7687 14.5437 19.6812C14.1969 19.1187 14 18.4531 14 17.75C14 16.5688 14.5437 15.5094 15.4062 14.825C16.0531 14.3094 16.8687 14 17.75 14C19.8219 14 21.5 15.6781 21.5 17.75Z" stroke="#4B61DD" stroke-width="1.5" stroke-linecap="round" stroke-linejoin="round"></path>
</svg>
