<?xml version="1.0" encoding="UTF-8"?>
<svg xmlns="http://www.w3.org/2000/svg" width="24" height="24" viewBox="0 0 24 24" fill="none">
  <path d="M18.1261 8.12613C18.9369 8.21622 19.8378 8.03604 20.4685 7.40541C21.5495 6.32432 21.5495 4.7027 20.4685 3.62162C19.3874 2.54054 17.7658 2.54054 16.6847 3.62162C16.0541 4.25225 15.7838 5.15315 15.964 5.96396L12 2L8.21622 5.78378C8.93694 5.69369 9.74775 5.96396 10.2883 6.5045C11.3694 7.58559 11.3694 9.20721 10.2883 10.2883C9.20721 11.3694 7.58559 11.3694 6.5045 10.2883C5.96396 9.74775 5.69369 8.93694 5.78378 8.21622L2 12L12 22L22 12L18.1261 8.12613Z" stroke="#4B61DD" stroke-width="1.5" stroke-miterlimit="10" stroke-linecap="round" stroke-linejoin="round"></path>
</svg>
