<?xml version="1.0" encoding="UTF-8"?>
<svg xmlns="http://www.w3.org/2000/svg" width="24" height="24" viewBox="0 0 24 24" fill="none">
  <path d="M4.40476 15.5264L4.93509 14.996H4.93509L4.40476 15.5264ZM8.93476 20.0564L8.40443 20.5867L8.93476 20.0564ZM15.6848 20.0564L16.2137 20.5881L16.2151 20.5867L15.6848 20.0564ZM20.0748 8.91637L20.6065 8.38745L20.6039 8.38487L20.0748 8.91637ZM15.5348 4.39637L15.0044 4.9267L15.0056 4.92787L15.5348 4.39637ZM11.9348 3.00637L11.9707 3.75551L11.9739 3.75535L11.9348 3.00637ZM6.93476 3.24637L6.96847 3.99561L6.97071 3.9955L6.93476 3.24637ZM3.24476 6.91637L2.4957 6.87873L2.49562 6.88041L3.24476 6.91637ZM3.00476 11.9164L2.25561 11.8804L2.2555 11.8831L3.00476 11.9164ZM12.7044 16.696C12.4115 16.9889 12.4115 17.4638 12.7044 17.7567C12.9973 18.0496 13.4722 18.0496 13.7651 17.7567L12.7044 16.696ZM17.7651 13.7567C18.058 13.4638 18.058 12.9889 17.7651 12.696C17.4722 12.4031 16.9973 12.4031 16.7044 12.696L17.7651 13.7567ZM3.87443 16.0567L8.40443 20.5867L9.46509 19.526L4.93509 14.996L3.87443 16.0567ZM8.40443 20.5867C10.5581 22.7404 14.0519 22.7383 16.2137 20.5881L15.1558 19.5246C13.5776 21.0944 11.0314 21.0924 9.46509 19.526L8.40443 20.5867ZM16.2151 20.5867L20.6051 16.1967L19.5444 15.136L15.1544 19.526L16.2151 20.5867ZM20.6051 16.1967C22.7588 14.043 22.7567 10.5492 20.6065 8.38746L19.543 9.44527C21.1128 11.0235 21.1108 13.5697 19.5444 15.136L20.6051 16.1967ZM20.6039 8.38487L16.0639 3.86487L15.0056 4.92787L19.5456 9.44787L20.6039 8.38487ZM16.0651 3.86604C14.9668 2.7678 13.4507 2.17615 11.8956 2.25739L11.9739 3.75535C13.0988 3.69658 14.2027 4.12494 15.0044 4.9267L16.0651 3.86604ZM11.8988 2.25723L6.8988 2.49723L6.97071 3.9955L11.9707 3.7555L11.8988 2.25723ZM6.90104 2.49713C4.51385 2.60455 2.61505 4.50359 2.4957 6.87873L3.99381 6.95401C4.07446 5.34915 5.35566 4.06819 6.96847 3.99561L6.90104 2.49713ZM2.49562 6.88041L2.25562 11.8804L3.75389 11.9523L3.99389 6.95233L2.49562 6.88041ZM2.2555 11.8831C2.18616 13.4431 2.77545 14.9577 3.87443 16.0567L4.93509 14.996C4.13407 14.195 3.70335 13.0896 3.75402 11.9497L2.2555 11.8831ZM11.4848 9.72637C11.4848 10.6929 10.7013 11.4764 9.73476 11.4764V12.9764C11.5297 12.9764 12.9848 11.5213 12.9848 9.72637H11.4848ZM9.73476 11.4764C8.76826 11.4764 7.98476 10.6929 7.98476 9.72637H6.48476C6.48476 11.5213 7.93983 12.9764 9.73476 12.9764V11.4764ZM7.98476 9.72637C7.98476 8.75987 8.76826 7.97637 9.73476 7.97637V6.47637C7.93983 6.47637 6.48476 7.93144 6.48476 9.72637H7.98476ZM9.73476 7.97637C10.7013 7.97637 11.4848 8.75987 11.4848 9.72637H12.9848C12.9848 7.93144 11.5297 6.47637 9.73476 6.47637V7.97637ZM13.7651 17.7567L17.7651 13.7567L16.7044 12.696L12.7044 16.696L13.7651 17.7567Z" fill="#4B61DD"></path>
</svg>
