<?xml version="1.0" encoding="UTF-8"?>
<svg xmlns="http://www.w3.org/2000/svg" width="24" height="24" viewBox="0 0 24 24" fill="none">
  <path d="M10.25 13.25C9.83579 13.25 9.5 13.5858 9.5 14C9.5 14.4142 9.83579 14.75 10.25 14.75V13.25ZM13.75 14.75C14.1642 14.75 14.5 14.4142 14.5 14C14.5 13.5858 14.1642 13.25 13.75 13.25V14.75ZM4.5 10V9.25H3.75V10H4.5ZM19.5 10H20.25V9.25H19.5V10ZM6 2.75H18V1.25H6V2.75ZM18 9.25H6V10.75H18V9.25ZM6 9.25C5.03599 9.25 4.38843 9.24841 3.90539 9.18346C3.44393 9.12142 3.24643 9.0142 3.11612 8.88388L2.05546 9.94454C2.51093 10.4 3.07773 10.5857 3.70552 10.6701C4.31174 10.7516 5.07839 10.75 6 10.75V9.25ZM1.25 6C1.25 6.92161 1.24841 7.68826 1.32991 8.29448C1.41432 8.92227 1.59999 9.48907 2.05546 9.94454L3.11612 8.88388C2.9858 8.75357 2.87858 8.55607 2.81654 8.09461C2.75159 7.61157 2.75 6.96401 2.75 6H1.25ZM21.25 6C21.25 6.96401 21.2484 7.61157 21.1835 8.09461C21.1214 8.55607 21.0142 8.75357 20.8839 8.88388L21.9445 9.94454C22.4 9.48907 22.5857 8.92227 22.6701 8.29448C22.7516 7.68826 22.75 6.92161 22.75 6H21.25ZM18 10.75C18.9216 10.75 19.6883 10.7516 20.2945 10.6701C20.9223 10.5857 21.4891 10.4 21.9445 9.94454L20.8839 8.88388C20.7536 9.0142 20.5561 9.12142 20.0946 9.18346C19.6116 9.24841 18.964 9.25 18 9.25V10.75ZM18 2.75C18.964 2.75 19.6116 2.75159 20.0946 2.81654C20.5561 2.87858 20.7536 2.9858 20.8839 3.11612L21.9445 2.05546C21.4891 1.59999 20.9223 1.41432 20.2945 1.32991C19.6883 1.24841 18.9216 1.25 18 1.25V2.75ZM22.75 6C22.75 5.07839 22.7516 4.31174 22.6701 3.70552C22.5857 3.07773 22.4 2.51093 21.9445 2.05546L20.8839 3.11612C21.0142 3.24643 21.1214 3.44393 21.1835 3.90539C21.2484 4.38843 21.25 5.03599 21.25 6H22.75ZM6 1.25C5.07839 1.25 4.31174 1.24841 3.70552 1.32991C3.07773 1.41432 2.51093 1.59999 2.05546 2.05546L3.11612 3.11612C3.24643 2.9858 3.44393 2.87858 3.90539 2.81654C4.38843 2.75159 5.03599 2.75 6 2.75V1.25ZM2.75 6C2.75 5.03599 2.75159 4.38843 2.81654 3.90539C2.87858 3.44393 2.9858 3.24643 3.11612 3.11612L2.05546 2.05546C1.59999 2.51093 1.41432 3.07773 1.32991 3.70552C1.24841 4.31174 1.25 5.07839 1.25 6H2.75ZM10.25 14.75H13.75V13.25H10.25V14.75ZM4.5 10.75H19.5V9.25H4.5V10.75ZM18.75 10V18H20.25V10H18.75ZM15.5 21.25H8.5V22.75H15.5V21.25ZM5.25 18V10H3.75V18H5.25ZM8.5 21.25C7.53599 21.25 6.88843 21.2484 6.40539 21.1835C5.94393 21.1214 5.74643 21.0142 5.61612 20.8839L4.55546 21.9445C5.01093 22.4 5.57773 22.5857 6.20552 22.6701C6.81174 22.7516 7.57839 22.75 8.5 22.75V21.25ZM3.75 18C3.75 18.9216 3.74841 19.6883 3.82991 20.2945C3.91432 20.9223 4.09999 21.4891 4.55546 21.9445L5.61612 20.8839C5.4858 20.7536 5.37858 20.5561 5.31654 20.0946C5.25159 19.6116 5.25 18.964 5.25 18H3.75ZM18.75 18C18.75 18.964 18.7484 19.6116 18.6835 20.0946C18.6214 20.5561 18.5142 20.7536 18.3839 20.8839L19.4445 21.9445C19.9 21.4891 20.0857 20.9223 20.1701 20.2945C20.2516 19.6883 20.25 18.9216 20.25 18H18.75ZM15.5 22.75C16.4216 22.75 17.1883 22.7516 17.7945 22.6701C18.4223 22.5857 18.9891 22.4 19.4445 21.9445L18.3839 20.8839C18.2536 21.0142 18.0561 21.1214 17.5946 21.1835C17.1116 21.2484 16.464 21.25 15.5 21.25V22.75Z" fill="#4B61DD"></path>
</svg>
