<?xml version="1.0" encoding="UTF-8"?>
<svg xmlns="http://www.w3.org/2000/svg" width="24" height="24" viewBox="0 0 24 24" fill="none">
  <path d="M9.8 10.6V9.7C9.8 8.206 10.25 7 12.5 7C14.75 7 15.2 8.206 15.2 9.7V10.6M7.23 19.7C8.05 18.82 9.3 18.89 10.02 19.85L11.03 21.2C11.84 22.27 13.15 22.27 13.96 21.2L14.97 19.85C15.69 18.89 16.94 18.82 17.76 19.7C19.54 21.6 20.99 20.97 20.99 18.31V7.04C21 3.01 20.06 2 16.28 2H8.72C4.94 2 4 3.01 4 7.04V18.3C4 20.97 5.46 21.59 7.23 19.7ZM14.75 16H10.25C8.45 16 8 15.55 8 13.75V12.85C8 11.05 8.45 10.6 10.25 10.6H14.75C16.55 10.6 17 11.05 17 12.85V13.75C17 15.55 16.55 16 14.75 16Z" stroke="#4B61DD" stroke-width="1.5" stroke-linecap="round" stroke-linejoin="round"></path>
</svg>
