<?xml version="1.0" encoding="UTF-8"?>
<svg xmlns="http://www.w3.org/2000/svg" width="24" height="24" viewBox="0 0 24 24" fill="none">
  <path d="M2.00484 22.75C1.80489 22.75 1.61491 22.67 1.47494 22.5301C1.28498 22.3402 1.20505 22.0603 1.27503 21.8004L2.53475 17.0926C1.69495 15.5334 1.25502 13.7742 1.25502 11.995C1.25502 6.06776 6.07389 1.25 12.0025 1.25C17.9311 1.25 22.75 6.06776 22.75 11.995C22.75 17.9222 17.9311 22.74 12.0025 22.74C10.1929 22.74 8.42337 22.2902 6.84374 21.4306L2.20481 22.72C2.13483 22.74 2.07483 22.75 2.00484 22.75ZM6.94369 19.8813C7.07366 19.8813 7.20364 19.9213 7.32361 19.9813C8.73328 20.8109 10.3529 21.2507 12.0025 21.2507C17.1013 21.2507 21.2504 17.1026 21.2504 12.005C21.2504 6.90738 17.1013 2.75931 12.0025 2.75931C6.9037 2.75931 2.75467 6.90738 2.75467 12.005C2.75467 13.6342 3.18456 15.2235 3.99437 16.6228C4.09435 16.7928 4.12436 17.0027 4.07437 17.1926L3.0746 20.9308L6.75374 19.9113C6.81372 19.8913 6.88371 19.8813 6.94369 19.8813Z" fill="#4B61DD"></path>
  <path d="M14.7418 17.7623C14.122 17.7623 13.4821 17.6224 12.8123 17.3325C12.1825 17.0626 11.5526 16.7028 10.9427 16.253C10.3429 15.8132 9.75304 15.3135 9.21317 14.7737C8.67329 14.224 8.17337 13.6443 7.73347 13.0445C7.28358 12.4148 6.92365 11.7951 6.66371 11.1854C6.38378 10.5257 6.24383 9.87601 6.24383 9.25629C6.24383 8.8165 6.32379 8.39669 6.47376 8.00688C6.63372 7.59707 6.89367 7.22723 7.23359 6.90738C7.87344 6.27767 8.79326 6.0478 9.52309 6.39764C9.77304 6.50759 9.98298 6.6875 10.1429 6.92739L11.3026 8.55661C11.4226 8.71653 11.5126 8.88645 11.5826 9.05637C11.6626 9.25628 11.7126 9.45622 11.7126 9.64613C11.7126 9.90601 11.6426 10.1659 11.5026 10.3958C11.4126 10.5457 11.2826 10.7256 11.1127 10.8955L10.9827 11.0355C11.0427 11.1154 11.1127 11.2154 11.2226 11.3353C11.4326 11.5752 11.6625 11.8351 11.9125 12.085C12.1624 12.3249 12.4124 12.5647 12.6623 12.7746C12.7823 12.8746 12.8823 12.9546 12.9623 13.0045L13.1022 12.8646C13.2822 12.6847 13.4622 12.5448 13.6421 12.4548C13.972 12.2449 14.4819 12.1949 14.9318 12.3848C15.0918 12.4448 15.2517 12.5348 15.4217 12.6547L17.0913 13.8341C17.3213 13.9941 17.5012 14.214 17.6212 14.4639C17.7212 14.7137 17.7612 14.9337 17.7612 15.1635C17.7612 15.4634 17.6912 15.7533 17.5612 16.0331C17.4312 16.293 17.2812 16.5229 17.1013 16.7328C16.7814 17.0827 16.4115 17.3425 16.0116 17.5125C15.6117 17.6824 15.1817 17.7623 14.7418 17.7623ZM8.79322 7.74699C8.73324 7.74699 8.53333 7.74699 8.28339 7.99687C8.09344 8.17679 7.96343 8.36672 7.87345 8.57662C7.78347 8.78652 7.74348 9.02641 7.74348 9.2663C7.74348 9.6861 7.84344 10.1359 8.0434 10.6156C8.25335 11.1154 8.5633 11.6452 8.94321 12.1749C9.33312 12.7047 9.77302 13.2344 10.2629 13.7242C10.7528 14.204 11.2727 14.6538 11.8125 15.0536C12.3324 15.4334 12.8623 15.7333 13.3922 15.9632C14.152 16.293 14.8518 16.373 15.4217 16.1331C15.6216 16.0531 15.8016 15.9132 15.9815 15.7333C16.0715 15.6333 16.1415 15.5334 16.2015 15.4034C16.2315 15.3335 16.2515 15.2535 16.2515 15.1835C16.2515 15.1635 16.2515 15.1336 16.2215 15.0736L14.5519 13.9141C14.4819 13.8642 14.4119 13.8242 14.3519 13.8042C14.3119 13.8242 14.252 13.8541 14.142 13.9641L13.7621 14.3439C13.4722 14.6338 13.0123 14.7137 12.6424 14.5838L12.4624 14.5039C12.2325 14.3839 11.9725 14.204 11.6826 13.9541C11.4026 13.7142 11.1327 13.4643 10.8428 13.1845C10.5629 12.8946 10.3129 12.6247 10.073 12.3449C9.81301 12.035 9.63306 11.7851 9.51309 11.5752L9.40313 11.3153C9.37313 11.2154 9.3631 11.1054 9.3631 11.0055C9.3631 10.7256 9.46311 10.4757 9.65307 10.2758L10.033 9.88601C10.143 9.77606 10.1829 9.71609 10.2029 9.67611C10.1729 9.60614 10.1329 9.54616 10.083 9.47619L8.91319 7.82697L8.79322 7.74699Z" fill="#4B61DD"></path>
</svg>
