<?xml version="1.0" encoding="UTF-8"?>
<svg xmlns="http://www.w3.org/2000/svg" width="24" height="24" viewBox="0 0 24 24" fill="none">
  <path d="M12.0001 16C12.3601 16 12.7101 15.97 13.0501 15.91C15.0401 15.62 16.7501 14.49 17.8301 12.89C18.5701 11.78 19.0001 10.45 19.0001 9C19.0001 5.13 15.8701 2 12.0001 2C8.13008 2 5.00008 5.13 5.00008 9C5.00008 10.45 5.43008 11.78 6.17008 12.89C7.25008 14.49 8.96008 15.62 10.9501 15.91C11.2901 15.97 11.6401 16 12.0001 16ZM12.0001 16L16.7701 21.48C17.3001 22.11 18.3201 21.87 18.5101 21.07L18.8601 19.6C18.9401 19.23 19.2301 18.95 19.6001 18.86L21.2501 18.47C22.0101 18.29 22.2801 17.34 21.7301 16.8L17.8301 12.9C16.7501 14.5 15.0401 15.63 13.0501 15.92C12.7101 15.98 12.3601 16.01 12.0001 16.01C11.6401 16.01 11.2901 15.98 10.9501 15.92C8.96008 15.63 7.25008 14.5 6.17008 12.9L2.27008 16.8C1.72008 17.35 1.99008 18.3 2.75008 18.48L4.40008 18.87C4.76008 18.95 5.05008 19.24 5.14008 19.61L5.49008 21.08C5.68008 21.88 6.70008 22.12 7.23008 21.49L12.0001 16ZM12.5801 5.98L13.1701 7.15999C13.2501 7.31999 13.4601 7.48 13.6501 7.51L14.7201 7.68999C15.4001 7.79999 15.5601 8.3 15.0701 8.79L14.2401 9.61998C14.1001 9.75998 14.0201 10.03 14.0701 10.23L14.3101 11.26C14.5001 12.07 14.0701 12.39 13.3501 11.96L12.3501 11.37C12.1701 11.26 11.8701 11.26 11.6901 11.37L10.6901 11.96C9.97008 12.38 9.54008 12.07 9.73008 11.26L9.97008 10.23C10.0101 10.04 9.94008 9.75998 9.80008 9.61998L8.97008 8.79C8.48008 8.3 8.64008 7.80999 9.32008 7.68999L10.3901 7.51C10.5701 7.48 10.7801 7.31999 10.8601 7.15999L11.4501 5.98C11.7401 5.34 12.2601 5.34 12.5801 5.98Z" stroke="#4B61DD" stroke-width="1.5" stroke-linecap="round" stroke-linejoin="round"></path>
</svg>
