<?xml version="1.0" encoding="UTF-8"?>
<svg xmlns="http://www.w3.org/2000/svg" width="24" height="24" viewBox="0 0 24 24" fill="none">
  <path d="M5.86 21.62C3.14 20.85 2 18.78 2 15V9C2 4 4 2 9 2H15C20 2 22 4 22 9V15C22 18.78 20.86 20.85 18.14 21.62M5.86 21.62C6.08 19.02 8.75 16.97 12 16.97C15.25 16.97 17.92 19.02 18.14 21.62M5.86 21.62C6.74 21.88 7.78 22 9 22H15C16.22 22 17.26 21.88 18.14 21.62M12 14.17C10.02 14.17 8.42 12.56 8.42 10.58C8.42 8.60002 10.02 7 12 7C13.98 7 15.58 8.60002 15.58 10.58C15.58 12.56 13.98 14.17 12 14.17Z" stroke="#4B61DD" stroke-width="1.5" stroke-linecap="round" stroke-linejoin="round"></path>
</svg>
