<?xml version="1.0" encoding="UTF-8"?>
<svg xmlns="http://www.w3.org/2000/svg" width="24" height="24" viewBox="0 0 24 24" fill="none">
  <path d="M16.1442 12.5C16.0541 12.491 15.946 12.491 15.8469 12.5C13.7028 12.4278 12.0001 10.6691 12.0001 8.50451C12.0001 6.29481 13.7838 4.5 16.0001 4.5C18.2073 4.5 20.0001 6.29481 20.0001 8.50451C19.9911 10.6691 18.2883 12.4278 16.1442 12.5Z" stroke="#4B61DD" stroke-width="1.5" stroke-miterlimit="10" stroke-linecap="round" stroke-linejoin="round"></path>
  <path d="M11.5968 15.2734C9.4678 16.7765 9.4678 19.2259 11.5968 20.7196C14.0162 22.4268 17.9839 22.4268 20.4033 20.7196C22.5323 19.2166 22.5323 16.7672 20.4033 15.2734C17.9927 13.5755 14.025 13.5755 11.5968 15.2734Z" stroke="#4B61DD" stroke-width="1.5" stroke-miterlimit="10" stroke-linecap="round" stroke-linejoin="round"></path>
  <path d="M4.00006 7.85501H5.60006L7.38007 8.9382C7.64407 9.09921 8.00006 8.92722 8.00006 8.63447V7.85501C9.20006 7.85501 10.0001 7.12314 10.0001 6.02532V3.82969C10.0001 2.73188 9.20006 2 8.00006 2H4.00006C2.80006 2 2.00006 2.73188 2.00006 3.82969V6.02532C2.00006 7.12314 2.80006 7.85501 4.00006 7.85501Z" stroke="#4B61DD" stroke-width="1.5" stroke-miterlimit="10" stroke-linecap="round" stroke-linejoin="round"></path>
</svg>
