<?xml version="1.0" encoding="UTF-8"?>
<svg xmlns="http://www.w3.org/2000/svg" width="24" height="24" viewBox="0 0 24 24" fill="none">
  <path d="M12.5 10V10.75V10ZM11.5 10V9.25V10ZM12.52 2.07007L13.1908 1.73465L13.1884 1.72997L12.52 2.07007ZM13.05 3.13006L13.7296 2.8129C13.7268 2.80678 13.7238 2.8007 13.7208 2.79466L13.05 3.13006ZM13.47 3.44006L13.5933 2.70027C13.5832 2.69859 13.5731 2.69712 13.563 2.69585L13.47 3.44006ZM14.43 3.60007L14.3067 4.33986L14.3087 4.34019L14.43 3.60007ZM14.75 4.58005L14.2257 4.04362L14.2197 4.04972L14.75 4.58005ZM13.84 5.87006L14.5712 5.70315L14.57 5.69828L13.84 5.87006ZM14.05 6.79007L13.3188 6.95697L13.3195 6.96017L14.05 6.79007ZM13.19 7.42007L13.5729 6.77518L13.5706 6.77381L13.19 7.42007ZM12.29 6.89007L11.8925 7.52607C11.8981 7.52957 11.9037 7.53299 11.9094 7.53634L12.29 6.89007ZM11.7 6.89007L12.0806 7.53634C12.0862 7.53299 12.0919 7.52957 12.0975 7.52607L11.7 6.89007ZM10.8 7.42007L10.4194 6.7738L10.4171 6.77518L10.8 7.42007ZM9.93998 6.79007L10.6704 6.96018L10.6712 6.95697L9.93998 6.79007ZM10.15 5.87006L9.41991 5.69827L9.41879 5.70315L10.15 5.87006ZM9.98999 5.33005L9.45966 5.86038C9.46673 5.86745 9.47393 5.87437 9.48128 5.88115L9.98999 5.33005ZM9.24999 4.59006L8.71966 5.12039L8.71966 5.12039L9.24999 4.59006ZM9.56999 3.61005L9.68941 4.35049L9.69326 4.34984L9.56999 3.61005ZM10.53 3.45007L10.6533 4.18987C10.6583 4.18904 10.6632 4.18816 10.6682 4.18723L10.53 3.45007ZM10.95 3.14007L11.6208 3.47548L11.6208 3.47548L10.95 3.14007ZM11.48 2.08005L10.8092 1.74464L10.8092 1.74464L11.48 2.08005ZM16.5 17.75H18.75V16.25H16.5V17.75ZM21 20V21H22.5V20H21ZM20.75 21.25H15.5V22.75H20.75V21.25ZM16.25 22V18H14.75V22H16.25ZM21 21C21 21.1206 21 21.2135 20.9979 21.2927C20.9959 21.3724 20.9923 21.4197 20.9884 21.4487C20.9846 21.4772 20.983 21.4676 20.9946 21.4393C21.0087 21.4051 21.0344 21.3621 21.0732 21.3232L22.1339 22.3839C22.3697 22.1481 22.4455 21.8679 22.475 21.6486C22.5016 21.4508 22.5 21.2145 22.5 21H21ZM20.75 22.75C20.9645 22.75 21.2008 22.7516 21.3986 22.725C21.6179 22.6955 21.8981 22.6197 22.1339 22.3839L21.0732 21.3232C21.1121 21.2844 21.1551 21.2587 21.1893 21.2446C21.2176 21.233 21.2272 21.2346 21.1987 21.2384C21.1697 21.2423 21.1224 21.2459 21.0427 21.2479C20.9635 21.25 20.8706 21.25 20.75 21.25V22.75ZM18.75 17.75C19.4783 17.75 19.9491 17.7516 20.296 17.7982C20.6213 17.842 20.7232 17.9126 20.7803 17.9697L21.841 16.909C21.4587 16.5268 20.9875 16.3777 20.4958 16.3116C20.0258 16.2484 19.4359 16.25 18.75 16.25V17.75ZM22.5 20C22.5 19.3141 22.5016 18.7242 22.4384 18.2542C22.3723 17.7625 22.2232 17.2913 21.841 16.909L20.7803 17.9697C20.8374 18.0268 20.908 18.1287 20.9518 18.454C20.9984 18.8009 21 19.2717 21 20H22.5ZM16.5 16.25C16.2855 16.25 16.0492 16.2484 15.8514 16.275C15.6321 16.3045 15.3519 16.3803 15.1161 16.6161L16.1768 17.6768C16.1379 17.7156 16.0949 17.7413 16.0607 17.7554C16.0324 17.767 16.0228 17.7654 16.0513 17.7616C16.0803 17.7577 16.1276 17.7541 16.2073 17.7521C16.2865 17.75 16.3794 17.75 16.5 17.75V16.25ZM16.25 18C16.25 17.8794 16.25 17.7865 16.252 17.7073C16.2541 17.6276 16.2577 17.5803 16.2616 17.5513C16.2654 17.5228 16.267 17.5324 16.2554 17.5607C16.2413 17.5949 16.2156 17.6379 16.1768 17.6768L15.1161 16.6161C14.8803 16.8519 14.8045 17.1321 14.775 17.3514C14.7484 17.5492 14.75 17.7855 14.75 18H16.25ZM11.5 10.75H12.5V9.25H11.5V10.75ZM14.75 13V22H16.25V13H14.75ZM15.5 21.25H8.5V22.75H15.5V21.25ZM9.25 22V13H7.75V22H9.25ZM12.5 10.75C13.2283 10.75 13.6991 10.7516 14.046 10.7982C14.3713 10.842 14.4732 10.9126 14.5303 10.9697L15.591 9.90901C15.2087 9.52676 14.7375 9.3777 14.2458 9.31161C13.7758 9.24841 13.1859 9.25 12.5 9.25V10.75ZM16.25 13C16.25 12.3141 16.2516 11.7242 16.1884 11.2542C16.1223 10.7625 15.9732 10.2913 15.591 9.90901L14.5303 10.9697C14.5874 11.0268 14.658 11.1287 14.7018 11.454C14.7484 11.8009 14.75 12.2717 14.75 13H16.25ZM11.5 9.25C10.8141 9.25 10.2242 9.24841 9.75416 9.31161C9.26252 9.3777 8.79126 9.52676 8.40901 9.90901L9.46967 10.9697C9.52676 10.9126 9.62872 10.842 9.95403 10.7982C10.3009 10.7516 10.7717 10.75 11.5 10.75V9.25ZM9.25 13C9.25 12.2717 9.25159 11.8009 9.29823 11.454C9.34197 11.1287 9.41258 11.0268 9.46967 10.9697L8.40901 9.90901C8.02676 10.2913 7.8777 10.7625 7.81161 11.2542C7.74841 11.7242 7.75 12.3141 7.75 13H9.25ZM5.25 14.75H7.5V13.25H5.25V14.75ZM7.75 15V22H9.25V15H7.75ZM8.5 21.25H3.25V22.75H8.5V21.25ZM3 21V17H1.5V21H3ZM3.25 21.25C3.12936 21.25 3.03654 21.25 2.95727 21.2479C2.87762 21.2459 2.83026 21.2423 2.8013 21.2384C2.77282 21.2346 2.78238 21.233 2.81066 21.2446C2.84492 21.2587 2.88793 21.2844 2.92678 21.3232L1.86612 22.3839C2.10192 22.6197 2.38211 22.6955 2.60143 22.725C2.79918 22.7516 3.0355 22.75 3.25 22.75V21.25ZM1.5 21C1.5 21.2145 1.49841 21.4508 1.52499 21.6486C1.55448 21.8679 1.63032 22.1481 1.86612 22.3839L2.92678 21.3232C2.96562 21.3621 2.99128 21.4051 3.00538 21.4393C3.01701 21.4676 3.01545 21.4772 3.01162 21.4487C3.00772 21.4197 3.00406 21.3724 3.00205 21.2927C3.00005 21.2135 3 21.1206 3 21H1.5ZM7.5 14.75C7.62064 14.75 7.71346 14.75 7.79273 14.752C7.87238 14.7541 7.91974 14.7577 7.9487 14.7616C7.97718 14.7654 7.96762 14.767 7.93934 14.7554C7.90508 14.7413 7.86207 14.7156 7.82322 14.6768L8.88388 13.6161C8.64808 13.3803 8.36789 13.3045 8.14857 13.275C7.95082 13.2484 7.7145 13.25 7.5 13.25V14.75ZM9.25 15C9.25 14.7855 9.25159 14.5492 9.22501 14.3514C9.19552 14.1321 9.11968 13.8519 8.88388 13.6161L7.82322 14.6768C7.78438 14.6379 7.75872 14.5949 7.74462 14.5607C7.73299 14.5324 7.73455 14.5228 7.73838 14.5513C7.74228 14.5803 7.74594 14.6276 7.74795 14.7073C7.74995 14.7865 7.75 14.8794 7.75 15H9.25ZM5.25 13.25C4.5641 13.25 3.97422 13.2484 3.50416 13.3116C3.01252 13.3777 2.54126 13.5268 2.15901 13.909L3.21967 14.9697C3.27676 14.9126 3.37872 14.842 3.70403 14.7982C4.05091 14.7516 4.52169 14.75 5.25 14.75V13.25ZM3 17C3 16.2717 3.00159 15.8009 3.04823 15.454C3.09197 15.1287 3.16258 15.0268 3.21967 14.9697L2.15901 13.909C1.77676 14.2913 1.6277 14.7625 1.56161 15.2542C1.49841 15.7242 1.5 16.3141 1.5 17H3ZM11.8492 2.40548L12.3792 3.46547L13.7208 2.79466L13.1908 1.73466L11.8492 2.40548ZM12.3703 3.44723C12.4714 3.66377 12.6321 3.82753 12.781 3.93736C12.9289 4.04643 13.1353 4.15406 13.377 4.18427L13.563 2.69585C13.6091 2.70162 13.6382 2.71312 13.6496 2.71818C13.6623 2.72376 13.6687 2.72825 13.6715 2.73027C13.6742 2.73232 13.6797 2.7366 13.6875 2.74563C13.6947 2.75382 13.712 2.77525 13.7296 2.8129L12.3703 3.44723ZM13.3467 4.17986L14.3067 4.33986L14.5533 2.86027L13.5933 2.70027L13.3467 4.17986ZM14.3087 4.34019C14.3815 4.35213 14.3961 4.36775 14.3786 4.35588C14.3568 4.34111 14.3016 4.29295 14.2712 4.20049C14.2405 4.10706 14.256 4.03187 14.2674 4.00098C14.2766 3.97598 14.2769 3.99375 14.2258 4.04366L15.2742 5.11644C15.5958 4.80217 15.8818 4.29679 15.6962 3.73212C15.513 3.1745 14.9906 2.93196 14.5513 2.85995L14.3087 4.34019ZM14.2197 4.04972L13.4697 4.79972L14.5303 5.86038L15.2803 5.11038L14.2197 4.04972ZM13.4697 4.79972C13.2971 4.97228 13.1926 5.18386 13.1369 5.37293C13.0817 5.56009 13.0527 5.79861 13.1099 6.04183L14.57 5.69828C14.5797 5.7394 14.5791 5.76735 14.5784 5.77812C14.5777 5.78996 14.576 5.7957 14.5756 5.79717C14.5752 5.79873 14.5739 5.80292 14.5696 5.81059C14.5657 5.81761 14.5544 5.83633 14.5303 5.86038L13.4697 4.79972ZM13.1088 6.03695L13.3188 6.95697L14.7812 6.62317L14.5712 5.70316L13.1088 6.03695ZM13.3195 6.96017C13.347 7.0781 13.338 7.12329 13.3397 7.11402C13.3427 7.09811 13.3683 6.99798 13.4823 6.91498C13.5959 6.83227 13.6982 6.83873 13.713 6.84061C13.7216 6.84171 13.6758 6.83631 13.5729 6.77518L12.8071 8.06496C13.1838 8.28862 13.8215 8.52343 14.3652 8.12766C14.9108 7.7304 14.8804 7.04921 14.7804 6.61996L13.3195 6.96017ZM13.5706 6.77381L12.6706 6.24381L11.9094 7.53634L12.8094 8.06634L13.5706 6.77381ZM12.6875 6.25408C12.4587 6.11108 12.2035 6.06507 11.995 6.06507C11.7865 6.06507 11.5313 6.11108 11.3025 6.25408L12.0975 7.52607C12.059 7.55015 12.0298 7.55877 12.018 7.5617C12.0052 7.56488 11.998 7.56507 11.995 7.56507C11.992 7.56507 11.9848 7.56488 11.972 7.5617C11.9602 7.55877 11.931 7.55015 11.8925 7.52607L12.6875 6.25408ZM11.3194 6.24381L10.4194 6.77381L11.1806 8.06634L12.0806 7.53634L11.3194 6.24381ZM10.4171 6.77518C10.3141 6.83631 10.2683 6.84171 10.2769 6.84061C10.2918 6.83873 10.394 6.83227 10.5077 6.91498C10.6217 6.99798 10.6473 7.09811 10.6502 7.11402C10.6519 7.12329 10.643 7.0781 10.6704 6.96017L9.20953 6.61996C9.10957 7.04921 9.07913 7.7304 9.62481 8.12766C10.1684 8.52343 10.8062 8.28862 11.1829 8.06496L10.4171 6.77518ZM10.6712 6.95697L10.8812 6.03696L9.41879 5.70315L9.20879 6.62317L10.6712 6.95697ZM10.88 6.04183C10.9372 5.79884 10.9082 5.55848 10.8538 5.37166C10.7998 5.18595 10.6929 4.95821 10.4987 4.77894L9.48128 5.88115C9.44502 5.84768 9.4279 5.81971 9.42209 5.8094C9.41559 5.79787 9.41388 5.7918 9.41363 5.79095C9.41336 5.79 9.4121 5.7858 9.4115 5.77599C9.411 5.76764 9.41004 5.74028 9.41992 5.69828L10.88 6.04183ZM10.5203 4.79971L9.78031 4.05972L8.71966 5.12039L9.45966 5.86038L10.5203 4.79971ZM9.78032 4.05973C9.72521 4.00462 9.72214 3.98252 9.72985 4.00318C9.7397 4.02957 9.75773 4.10567 9.72598 4.20368C9.69423 4.30171 9.63505 4.35256 9.6121 4.36784C9.59427 4.37971 9.61066 4.36318 9.68941 4.35048L9.45056 2.86961C9.01682 2.93957 8.48266 3.17443 8.29899 3.74142C8.11533 4.30838 8.41044 4.81117 8.71966 5.12039L9.78032 4.05973ZM9.69326 4.34984L10.6533 4.18987L10.4067 2.71027L9.44671 2.87025L9.69326 4.34984ZM10.6682 4.18723C10.8878 4.14605 11.0784 4.04356 11.219 3.93987C11.3578 3.83746 11.5172 3.68264 11.6208 3.47548L10.2792 2.80466C10.2986 2.76585 10.3166 2.74523 10.3216 2.73976C10.3276 2.73306 10.33 2.73165 10.3285 2.73278C10.3271 2.73384 10.3278 2.73292 10.3333 2.73034C10.3376 2.72831 10.357 2.71944 10.3918 2.71292L10.6682 4.18723ZM11.6208 3.47548L12.1508 2.41545L10.8092 1.74464L10.2792 2.80467L11.6208 3.47548ZM12.1508 2.41546C12.1902 2.33663 12.2141 2.32167 12.2001 2.33316C12.1812 2.34869 12.1135 2.39307 12.005 2.39379C11.8962 2.39451 11.8268 2.35085 11.806 2.33413C11.7903 2.32154 11.8129 2.33433 11.8515 2.41016L13.1884 1.72997C12.9913 1.34244 12.6031 0.889786 11.995 0.893823C11.3885 0.89785 11.0046 1.35367 10.8092 1.74464L12.1508 2.41546Z" fill="#4B61DD"></path>
</svg>
