<?xml version="1.0" encoding="UTF-8"?>
<svg xmlns="http://www.w3.org/2000/svg" width="24" height="24" viewBox="0 0 24 24" fill="none">
  <path d="M12.25 16.5C9.91 16.5 8 14.59 8 12.25C8 9.91 9.91 8 12.25 8C14.59 8 16.5 9.91 16.5 12.25C16.5 14.59 14.59 16.5 12.25 16.5ZM12.25 9.5C10.73 9.5 9.5 10.73 9.5 12.25C9.5 13.77 10.73 15 12.25 15C13.77 15 15 13.77 15 12.25C15 10.73 13.77 9.5 12.25 9.5Z" fill="#4B61DD"></path>
  <path d="M17 7.5C16.87 7.5 16.74 7.47 16.62 7.42C16.5 7.37 16.39 7.3 16.29 7.21C16.2 7.11 16.12 7 16.07 6.88C16.02 6.76 16 6.63 16 6.5C16 6.37 16.02 6.24 16.07 6.12C16.13 5.99 16.2 5.89 16.29 5.79C16.34 5.75 16.39 5.7 16.44 5.67C16.5 5.63 16.56 5.6 16.62 5.58C16.68 5.55 16.74 5.53 16.81 5.52C17.13 5.45 17.47 5.56 17.71 5.79C17.8 5.89 17.87 5.99 17.92 6.12C17.97 6.24 18 6.37 18 6.5C18 6.63 17.97 6.76 17.92 6.88C17.87 7 17.8 7.11 17.71 7.21C17.61 7.3 17.5 7.37 17.38 7.42C17.26 7.47 17.13 7.5 17 7.5Z" fill="#4B61DD"></path>
  <path d="M15 22.75H9C3.57 22.75 1.25 20.43 1.25 15V9C1.25 3.57 3.57 1.25 9 1.25H15C20.43 1.25 22.75 3.57 22.75 9V15C22.75 20.43 20.43 22.75 15 22.75ZM9 2.75C4.39 2.75 2.75 4.39 2.75 9V15C2.75 19.61 4.39 21.25 9 21.25H15C19.61 21.25 21.25 19.61 21.25 15V9C21.25 4.39 19.61 2.75 15 2.75H9Z" fill="#4B61DD"></path>
</svg>
