<?xml version="1.0" encoding="UTF-8"?>
<svg xmlns="http://www.w3.org/2000/svg" width="24" height="24" viewBox="0 0 24 24" fill="none">
  <path d="M20.9498 18.43C20.7398 20.39 20.0198 22 15.9998 22H7.99983C3.97983 22 3.25983 20.39 3.04983 18.43M20.9498 18.43L21.6998 10.43C21.9698 7.99 21.2698 6 16.9998 6H6.99983C2.72983 6 2.02983 7.99 2.29983 10.43L3.04983 18.43M20.9498 18.43L21.6465 11C20.4309 12 17.1998 14 13.9998 14M3.04983 18.43L2.35333 11C3.56883 12 6.79982 14 9.99982 14M13.9998 14L13.9998 13C13.9998 12 13.9998 12 12.9998 12H10.9998C9.99982 12 9.99982 12 9.99982 13V14.03C9.99982 15.12 10.0198 16 11.9998 16C13.9898 16 13.9998 15.11 13.9998 14.02C13.9998 14.01 13.9998 14.01 13.9998 14ZM7.99982 6V5.2C7.99982 3.43 7.99982 2 11.1998 2H12.7998C15.9998 2 15.9998 3.43 15.9998 5.2V6" stroke="#4B61DD" stroke-width="1.5" stroke-miterlimit="10" stroke-linecap="round" stroke-linejoin="round"></path>
</svg>
