<?xml version="1.0" encoding="UTF-8"?>
<svg xmlns="http://www.w3.org/2000/svg" width="24" height="24" viewBox="0 0 24 24" fill="none">
  <path d="M20.0004 22V22.75L20.0004 22.75L20.0004 22ZM6.69432 4.22962L7.14432 4.82962L7.14432 4.82962L6.69432 4.22962ZM10.6005 2.2L11.0505 1.6L11.0505 1.6L10.6005 2.2ZM13.3067 4.22962L13.7567 3.62962L13.7567 3.62962L13.3067 4.22962ZM14.6138 4.13673L15.1441 4.66706L15.1441 4.66706L14.6138 4.13673ZM18.0005 3.16421L18.7505 3.16422V3.16421H18.0005ZM5.00043 14.0833C5.00043 14.4975 5.33621 14.8333 5.75043 14.8333C6.16464 14.8333 6.50043 14.4975 6.50043 14.0833H5.00043ZM8.20379 11.2317C8.00038 10.8709 7.54297 10.7433 7.18214 10.9467C6.82132 11.1501 6.69372 11.6076 6.89713 11.9684L8.20379 11.2317ZM8.2971 14.4517C8.50051 14.8125 8.95792 14.9401 9.31875 14.7367C9.67957 14.5332 9.80717 14.0758 9.60376 13.715L8.2971 14.4517ZM10.3338 16.75C10.3338 17.1642 10.6695 17.5 11.0838 17.5C11.498 17.5 11.8338 17.1642 11.8338 16.75H10.3338ZM22.0002 20L21.2502 20L21.2502 20L22.0002 20ZM18.0002 13V12.25C17.8013 12.25 17.6106 12.329 17.4699 12.4697C17.3293 12.6103 17.2502 12.8011 17.2502 13L18.0002 13ZM6.00049 21.25C4.90087 21.25 4.10921 20.9231 3.59332 20.4072C3.07743 19.8913 2.75049 19.0996 2.75049 18H1.25049C1.25049 19.4004 1.67355 20.6087 2.53266 21.4678C3.39177 22.3269 4.60011 22.75 6.00049 22.75V21.25ZM3.17727 2.98744L4.85689 4.66706L5.91755 3.6064L4.23793 1.92678L3.17727 2.98744ZM7.14432 4.82962L9.85049 2.8L8.95049 1.6L6.24432 3.62962L7.14432 4.82962ZM10.1505 2.8L12.8567 4.82962L13.7567 3.62962L11.0505 1.6L10.1505 2.8ZM15.1441 4.66706L16.8237 2.98744L15.7631 1.92678L14.0834 3.6064L15.1441 4.66706ZM16.8237 2.98744C16.9812 2.82995 17.2505 2.94149 17.2505 3.16421H18.7505C18.7505 1.60513 16.8655 0.824336 15.7631 1.92678L16.8237 2.98744ZM12.8567 4.82962C13.5534 5.35216 14.5283 5.28287 15.1441 4.66706L14.0834 3.6064C13.9955 3.69437 13.8562 3.70427 13.7567 3.62962L12.8567 4.82962ZM9.85049 2.8C9.93938 2.73333 10.0616 2.73333 10.1505 2.8L11.0505 1.6C10.4283 1.13333 9.57271 1.13333 8.95049 1.6L9.85049 2.8ZM4.85689 4.66706C5.4727 5.28287 6.44761 5.35216 7.14432 4.82962L6.24432 3.62962C6.14479 3.70427 6.00552 3.69437 5.91755 3.6064L4.85689 4.66706ZM2.75049 3.16421C2.75049 2.94149 3.01977 2.82994 3.17727 2.98744L4.23793 1.92678C3.13549 0.82434 1.25049 1.60513 1.25049 3.16421H2.75049ZM2.75049 18V3.16421H1.25049V18H2.75049ZM6.50043 9.35001C6.50043 9.43422 6.43465 9.5 6.35044 9.5V8C5.60622 8 5.00043 8.60579 5.00043 9.35001H6.50043ZM6.35044 9.5H7.88647V8H6.35044V9.5ZM7.88647 9.5C8.19219 9.5 8.46709 9.7339 8.46709 10.175H9.96709C9.96709 9.04413 9.15279 8 7.88647 8V9.5ZM8.46709 10.175C8.46709 10.6162 8.19219 10.8501 7.88647 10.8501V12.3501C9.15279 12.3501 9.96709 11.3059 9.96709 10.175H8.46709ZM7.88647 10.8501H5.75043V12.3501H7.88647V10.8501ZM6.50043 11.6001V9.35001H5.00043V11.6001H6.50043ZM5.00043 11.6001V14.0833H6.50043V11.6001H5.00043ZM6.89713 11.9684L8.2971 14.4517L9.60376 13.715L8.20379 11.2317L6.89713 11.9684ZM11.8338 12.0167C11.8338 12.1009 11.768 12.1667 11.6838 12.1667V10.6667C10.9396 10.6667 10.3338 11.2725 10.3338 12.0167H11.8338ZM11.6838 12.1667H13.2198V10.6667H11.6838V12.1667ZM13.2198 12.1667C13.5255 12.1667 13.8004 12.4006 13.8004 12.8417H15.3004C15.3004 11.7108 14.4861 10.6667 13.2198 10.6667V12.1667ZM13.8004 12.8417C13.8004 13.2828 13.5255 13.5167 13.2198 13.5167V15.0167C14.4861 15.0167 15.3004 13.9726 15.3004 12.8417H13.8004ZM13.2198 13.5167H11.0838V15.0167H13.2198V13.5167ZM11.8338 14.2667V12.0167H10.3338V14.2667H11.8338ZM10.3338 14.2667V16.75H11.8338V14.2667H10.3338ZM17.2504 20C17.2504 20.5801 17.3631 21.279 17.8147 21.8435C18.2919 22.44 19.0348 22.75 20.0004 22.75V21.25C19.3659 21.25 19.1089 21.06 18.986 20.9065C18.8376 20.721 18.7504 20.4199 18.7504 20H17.2504ZM6.00049 22.75H20.0004V21.25H6.00049V22.75ZM17.2505 3.16421L17.2504 20L18.7504 20L18.7505 3.16422L17.2505 3.16421ZM22.7502 20V15.58H21.2502V20H22.7502ZM22.7502 15.58C22.7502 14.6294 22.4462 13.7803 21.8331 13.1672C21.2199 12.554 20.3708 12.25 19.4202 12.25V13.75C20.0497 13.75 20.4905 13.946 20.7724 14.2278C21.0543 14.5097 21.2502 14.9506 21.2502 15.58H22.7502ZM19.4202 12.25H18.0002V13.75H19.4202V12.25ZM17.2502 13L17.2504 20L18.7504 20L18.7502 13L17.2502 13ZM20.0004 22.75C20.6316 22.75 21.1549 22.59 21.5726 22.3115C21.9857 22.0361 22.2517 21.6743 22.4211 21.3354C22.5891 20.9993 22.6694 20.6724 22.7088 20.4358C22.7288 20.3157 22.7391 20.214 22.7444 20.1393C22.7471 20.1019 22.7486 20.0709 22.7493 20.0474C22.7497 20.0356 22.75 20.0257 22.7501 20.0178C22.7502 20.0138 22.7502 20.0103 22.7502 20.0074C22.7502 20.0059 22.7502 20.0045 22.7502 20.0033C22.7502 20.0027 22.7502 20.0021 22.7502 20.0015C22.7502 20.0012 22.7502 20.0008 22.7502 20.0007C22.7502 20.0003 22.7502 20 22.0002 20C21.2502 20 21.2502 19.9997 21.2502 19.9993C21.2502 19.9992 21.2502 19.9989 21.2502 19.9987C21.2502 19.9982 21.2502 19.9978 21.2502 19.9975C21.2503 19.9967 21.2503 19.9961 21.2503 19.9955C21.2503 19.9945 21.2503 19.9939 21.2503 19.9937C21.2503 19.9933 21.2503 19.9946 21.2502 19.9975C21.25 20.0033 21.2495 20.0153 21.2482 20.0325C21.2458 20.0673 21.2404 20.1218 21.2292 20.1892C21.2062 20.3276 21.1614 20.5007 21.0795 20.6646C20.999 20.8256 20.89 20.9638 20.7406 21.0635C20.5958 21.16 20.3691 21.25 20.0004 21.25L20.0004 22.75ZM17.2504 20C17.2504 20.4534 17.3802 21.1167 17.7917 21.6882C18.2308 22.298 18.9559 22.75 20.0004 22.75V21.25C19.4448 21.25 19.17 21.0353 19.009 20.8118C18.8205 20.55 18.7504 20.2133 18.7504 20H17.2504Z" fill="#4B61DD"></path>
</svg>
