<?xml version="1.0" encoding="UTF-8"?>
<svg xmlns="http://www.w3.org/2000/svg" width="24" height="24" viewBox="0 0 24 24" fill="none">
  <path d="M6.99994 10V8M9.00006 22H15.0001C21.0001 22 22.0001 21 22.0001 17V15C22.0001 11 21.0001 10 15.0001 10H9.00006C3.00006 10 2.00006 11 2.00006 15V17C2.00006 21 3.00006 22 9.00006 22ZM22.0001 3.56929V5.44778C22.0001 5.61394 21.9816 5.77087 21.9401 5.91395C21.7693 6.59243 21.2062 7.01706 20.4308 7.01706H18.4479L17.054 7.94479C16.8463 8.08787 16.5693 7.93556 16.5693 7.68632V7.01706C16.0986 7.01706 15.7062 6.86014 15.4339 6.58782C15.157 6.31089 15.0001 5.91856 15.0001 5.44778V3.56929C15.0001 2.69234 15.5447 2.0877 16.3847 2.00924C16.4447 2.00462 16.5047 2 16.5693 2H20.4308C21.3724 2 22.0001 2.62772 22.0001 3.56929ZM8.00006 6.5C8.00006 7.05228 7.55235 7.5 7.00006 7.5C6.44778 7.5 6.00006 7.05228 6.00006 6.5C6.00006 5.94772 6.44778 5.5 7.00006 5.5C7.55235 5.5 8.00006 5.94772 8.00006 6.5Z" stroke="#4B61DD" stroke-width="1.5" stroke-miterlimit="10" stroke-linecap="round" stroke-linejoin="round"></path>
  <circle cx="8" cy="16" r="1" stroke="#4B61DD" stroke-width="2"></circle>
  <circle cx="16" cy="16" r="1" stroke="#4B61DD" stroke-width="2"></circle>
</svg>
