<?xml version="1.0" encoding="UTF-8"?>
<svg xmlns="http://www.w3.org/2000/svg" width="24" height="24" viewBox="0 0 24 24" fill="none">
  <path d="M12 18.22V23M12 18.22L17.56 18.22C21.0357 18.22 21.9616 17.3764 21.9988 14M12 18.22L6.44 18.22C2.9645 18.22 2.03853 17.367 2.00119 14M21.9988 14C21.9996 13.9278 22 13.8545 22 13.78V12M21.9988 14H2.00119M21.9988 14H22M2.00119 14C2.00039 13.9278 2 13.8545 2 13.78V7.44C2 3.89 2.89 3 6.44 3H10M2.00119 14H2M7.5 23H16.5M14.4999 6.50015H16.4999M14.4999 8.49977H18.4999M21 3.5V8.5C21 10 20.25 11 18.5 11H14.5C12.75 11 12 10 12 8.5V3.5C12 2 12.75 1 14.5 1H18.5C20.25 1 21 2 21 3.5Z" stroke="#4B61DD" stroke-width="1.5" stroke-miterlimit="10" stroke-linecap="round" stroke-linejoin="round"></path>
</svg>
