<?xml version="1.0" encoding="UTF-8"?>
<svg xmlns="http://www.w3.org/2000/svg" width="24" height="24" viewBox="0 0 24 24" fill="none">
  <path d="M6.39508 9.00144C5.21821 8.97672 4.0266 9.26933 3.12918 9.87929C1.62361 10.9089 1.62361 12.6013 3.12918 13.6207C4.01862 14.2288 5.20308 14.5214 6.37654 14.4988M17.6151 14.4986C18.7913 14.5228 19.9793 14.2302 20.8708 13.6207C22.3764 12.5911 22.3764 10.8987 20.8708 9.87929C19.9821 9.26821 18.7928 8.97564 17.6134 9.00158M12.1179 15C12.0425 14.9905 11.9575 14.9905 11.8726 15C10.1368 14.9432 8.75 13.5146 8.75 11.7547C8.75943 9.95706 10.2028 8.5 12.0047 8.5C13.7972 8.5 15.25 9.95706 15.25 11.7547C15.2406 13.5146 13.8632 14.9432 12.1179 15ZM8.87918 17.3793C7.37361 18.4089 7.37361 20.1013 8.87918 21.1207C10.5941 22.2931 13.4059 22.2931 15.1208 21.1207C16.6264 20.0911 16.6264 18.3987 15.1208 17.3793C13.4158 16.2069 10.6041 16.2069 8.87918 17.3793ZM6.14991 7.5C6.21664 7.49047 6.28336 7.49047 6.35009 7.5C7.82756 7.45234 9 6.24177 9 4.75477C9 3.22964 7.77036 2 6.24523 2C4.72964 2 3.5 3.22964 3.5 4.75477C3.5 6.24177 4.67244 7.45234 6.14991 7.5ZM17.6499 7.5C17.7166 7.49047 17.7834 7.49047 17.8501 7.5C19.3276 7.45234 20.5 6.24177 20.5 4.75477C20.5 3.22964 19.2704 2 17.7452 2C16.2296 2 15 3.22964 15 4.75477C15 6.24177 16.1724 7.45234 17.6499 7.5Z" stroke="#4B61DD" stroke-width="1.5" stroke-linecap="round"></path>
</svg>
