<?xml version="1.0" encoding="UTF-8"?>
<svg xmlns="http://www.w3.org/2000/svg" width="24" height="24" viewBox="0 0 24 24" fill="none">
  <path d="M6.01984 21C3.84326 21 2.00155 19.1495 2.00155 16.9626V11.2056C1.95504 8.47663 2.95961 5.90654 4.83854 3.98131C6.71746 2.06542 9.2382 1 11.9543 1C17.498 1 22 5.53271 22 11.0935V16.8505C22 19.0748 20.1955 20.8878 17.9817 20.8878C15.8051 20.8878 13.9634 19.0374 13.9634 16.8505V14.2243C13.9634 12.8692 15.0238 11.8037 16.3725 11.8037C17.7213 11.8037 18.7816 12.8692 18.7816 14.2243V17.0561C18.7816 17.4393 18.4654 17.757 18.084 17.757C17.7027 17.757 17.3864 17.4393 17.3864 17.0561V14.2243C17.3864 13.5888 16.8748 13.2056 16.3725 13.2056C15.74 13.2056 15.3587 13.7196 15.3587 14.2243V16.8505C15.3587 18.2804 16.5586 19.486 17.9817 19.486C19.4049 19.486 20.6048 18.2804 20.6048 16.8505V11.0935C20.6048 6.29907 16.726 2.40187 11.9543 2.40187C9.61956 2.40187 7.45229 3.30841 5.83381 4.96262C4.21533 6.61682 3.35028 8.83177 3.39679 11.1869V16.9626C3.39679 18.3925 4.59669 19.5981 6.01984 19.5981C7.44299 19.5981 8.64289 18.3925 8.64289 16.9626V14.3364C8.64289 13.7009 8.1313 13.3178 7.62902 13.3178C6.99651 13.3178 6.61514 13.8318 6.61514 14.3364V17.0654C6.61514 17.4486 6.29889 17.7664 5.91752 17.7664C5.53616 17.7664 5.2199 17.4486 5.2199 17.0654V14.3364C5.2199 12.9813 6.28028 11.9159 7.62902 11.9159C8.97775 11.9159 10.0381 12.9813 10.0381 14.3364V16.9626C10.0381 19.1495 8.19642 21 6.01984 21Z" fill="#4B61DD"></path>
  <path d="M21.22 18C21.6464 18 22 18.3053 22 18.6818C22 20.5 21.272 21.4818 20.44 22.0818C19.608 22.6818 18.4744 23 17.06 23H9.78C9.3536 23 9 22.6909 9 22.3182C9 21.9455 9.3536 21.6364 9.78 21.6364H17.06C19.3376 21.6364 20.44 20.6727 20.44 18.6818C20.44 18.3091 20.7936 18 21.22 18Z" fill="#4B61DD"></path>
</svg>
