<?xml version="1.0" encoding="UTF-8"?>
<svg xmlns="http://www.w3.org/2000/svg" width="24" height="24" viewBox="0 0 24 24" fill="none">
  <path d="M18.1491 4.56874L16.5152 9.38762L21.4941 10.3666C22.3649 10.5323 22.9975 11.1556 22.999 12.0068C23.0005 12.8581 22.3482 13.4571 21.5017 13.6319L16.5167 14.6124L18.1491 19.4313C18.4403 20.2613 18.2355 21.1217 17.4983 21.5443C16.7686 21.9623 15.9342 21.71 15.3471 21.0517L11.999 17.2255L8.65093 21.0517C8.07901 21.7008 7.23554 21.9699 6.49978 21.5443C5.76402 21.1186 5.55922 20.2704 5.84898 19.4313L7.4813 14.6124L2.49634 13.6334C1.64983 13.4586 0.997509 12.8596 0.999026 12.0084C1.00054 11.1586 1.63315 10.5338 2.50392 10.3681L7.4813 9.38762L5.84898 4.56874C5.55771 3.73874 5.76251 2.87834 6.49978 2.45573C7.22948 2.03769 8.06384 2.29004 8.65093 2.94826L11.999 6.77448L15.3471 2.94826C15.919 2.29916 16.7625 2.03009 17.4983 2.45573C18.234 2.88138 18.4388 3.72962 18.1491 4.56874Z" stroke="#4B61DD" stroke-width="1.5"></path>
</svg>
