<svg width="20" height="21" viewBox="0 0 20 21" fill="none" xmlns="http://www.w3.org/2000/svg">
<path fill-rule="evenodd" clip-rule="evenodd" d="M18 0.5C19.1046 0.5 20 1.39543 20 2.5V18.5C20 19.6046 19.1046 20.5 18 20.5H2C0.89543 20.5 0 19.6046 0 18.5V2.5C0 1.39543 0.89543 0.5 2 0.5H18ZM12.3078 5.5C10.9482 5.5 9.84608 6.63067 9.84608 8.02449C9.84608 8.22232 9.86824 8.41542 9.90977 8.59953C7.86385 8.49446 6.05008 7.48921 4.83535 5.96145C4.62398 6.3344 4.5026 6.76793 4.5026 7.23127C4.5026 8.10684 4.93689 8.87971 5.59732 9.33217C5.19395 9.31892 4.81412 9.20533 4.48229 9.01649V9.0482C4.48229 10.2716 5.33056 11.292 6.45714 11.5235C6.25084 11.5812 6.033 11.612 5.80824 11.612C5.64994 11.612 5.49533 11.5959 5.34533 11.567C5.65871 12.5699 6.5679 13.3002 7.64509 13.3205C6.80282 13.9978 5.74132 14.4015 4.58752 14.4015C4.38906 14.4015 4.19292 14.3897 4 14.366C5.08965 15.0821 6.38329 15.5 7.77385 15.5C12.3023 15.5 14.7779 11.6532 14.7779 8.31698C14.7779 8.20765 14.7756 8.0988 14.771 7.99042C15.2523 7.63403 15.67 7.18962 16 6.68368C15.5583 6.88483 15.0839 7.02019 14.5859 7.08124C15.0945 6.76887 15.4845 6.27429 15.6682 5.68458C15.1928 5.97376 14.6657 6.18389 14.1045 6.29748C13.6555 5.80669 13.0158 5.5 12.3078 5.5Z" fill="#545465"/>
</svg>
