<svg width="20" height="21" viewBox="0 0 20 21" fill="none" xmlns="http://www.w3.org/2000/svg">
<path d="M18.1818 0.5H1.81818C0.813636 0.5 0 1.31364 0 2.31818V18.6818C0 19.6864 0.813636 20.5 1.81818 20.5H10.9091V12.3182H8.18182V9.59091H10.9091V8.12636C10.9091 5.35364 12.26 4.13636 14.5645 4.13636C15.6682 4.13636 16.2518 4.21818 16.5282 4.25545V6.86364H14.9564C13.9782 6.86364 13.6364 7.38 13.6364 8.42545V9.59091H16.5036L16.1145 12.3182H13.6364V20.5H18.1818C19.1864 20.5 20 19.6864 20 18.6818V2.31818C20 1.31364 19.1855 0.5 18.1818 0.5Z" fill="#545465"/>
</svg>
