<?xml version="1.0" standalone="no"?>
<!DOCTYPE svg PUBLIC "-//W3C//DTD SVG 20010904//EN"
 "http://www.w3.org/TR/2001/REC-SVG-20010904/DTD/svg10.dtd">
<svg version="1.0" xmlns="http://www.w3.org/2000/svg"
 width="1281.000000pt" height="766.000000pt" viewBox="0 0 1281.000000 766.000000"
 preserveAspectRatio="xMidYMid meet">

<g transform="translate(0.000000,766.000000) scale(0.100000,-0.100000)"
fill="#000000" stroke="none">
<path d="M1840 6845 l0 -815 70 0 70 0 20 40 c11 22 23 40 26 40 3 0 22 -11
42 -25 107 -74 323 -101 445 -57 73 26 146 80 181 132 14 22 38 75 53 117 27
76 28 84 28 293 0 195 -2 222 -22 286 -44 140 -132 233 -252 268 -112 33 -286
14 -378 -40 l-43 -25 0 301 0 300 -120 0 -120 0 0 -815z m599 52 c22 -15 50
-45 62 -68 32 -63 44 -201 32 -352 -12 -140 -26 -175 -91 -225 -34 -26 -41
-27 -141 -27 -86 1 -117 5 -163 24 l-58 22 0 273 c0 296 3 332 31 346 46 25
128 40 206 37 69 -3 88 -8 122 -30z"/>
<path d="M3835 7593 c-68 -18 -122 -104 -111 -177 12 -75 81 -136 153 -136 14
0 46 9 69 21 47 22 84 82 84 135 -1 43 -34 108 -67 132 -31 22 -94 34 -128 25z"/>
<path d="M3220 7144 c-135 -20 -204 -48 -270 -110 -67 -63 -90 -125 -90 -246
0 -73 4 -101 21 -135 45 -93 136 -140 329 -168 133 -20 165 -30 190 -62 30
-39 28 -116 -5 -149 -44 -44 -84 -54 -217 -53 -95 0 -143 5 -213 23 -49 13
-93 22 -97 19 -5 -2 -8 -49 -8 -103 l0 -99 53 -16 c95 -27 158 -35 286 -35
239 0 363 55 428 188 24 52 27 67 26 169 0 102 -2 115 -27 158 -51 86 -146
132 -323 155 -178 23 -220 51 -210 136 6 53 34 88 85 105 54 18 282 6 360 -19
48 -15 64 -17 68 -8 3 7 3 54 2 106 l-3 93 -40 14 c-75 27 -271 47 -345 37z"/>
<path d="M3761 7111 c-11 -7 -13 -81 -8 -452 3 -277 9 -458 16 -480 15 -49 84
-125 125 -139 61 -20 147 -30 167 -19 16 8 19 22 19 99 l0 90 -35 14 c-19 8
-36 16 -37 18 -1 2 -5 199 -8 438 l-5 435 -110 3 c-60 1 -116 -2 -124 -7z"/>
<path d="M4455 7063 c-41 -3 -64 -9 -72 -20 -17 -22 -16 -75 1 -99 14 -19 59
-19 2873 -25 2009 -5 2880 -10 2931 -18 429 -64 731 -164 1045 -343 241 -139
396 -257 598 -458 424 -422 678 -911 791 -1523 25 -139 37 -612 19 -779 -78
-717 -456 -1407 -1021 -1861 -431 -347 -989 -575 -1490 -608 -147 -9 -6229
-26 -6220 -17 3 3 59 27 125 53 840 333 1464 999 1740 1855 49 153 89 332 116
514 19 134 21 179 16 430 -5 294 -14 374 -63 595 -94 417 -259 777 -517 1125
-120 162 -429 472 -588 589 -135 100 -275 187 -300 187 -30 0 -49 -12 -63 -39
-26 -51 -10 -68 230 -236 104 -72 169 -129 334 -295 211 -210 259 -270 403
-498 196 -312 334 -685 393 -1067 27 -173 27 -647 0 -820 -116 -746 -501
-1389 -1100 -1837 -319 -238 -698 -411 -1081 -493 -211 -45 -275 -50 -600 -50
-277 0 -324 3 -439 23 -609 106 -1108 363 -1532 786 -559 559 -849 1295 -820
2079 33 902 484 1719 1226 2222 140 95 170 122 170 152 0 28 -41 73 -67 73
-25 0 -152 -74 -254 -147 -206 -150 -453 -386 -598 -573 -678 -872 -820 -2043
-369 -3045 298 -661 877 -1224 1545 -1501 284 -118 609 -198 877 -215 224 -14
5226 -22 6466 -10 1142 10 1078 7 1340 66 359 81 678 216 973 411 701 466
1145 1145 1297 1984 41 228 44 710 5 939 -98 579 -352 1116 -711 1502 -213
229 -386 378 -604 521 -321 212 -670 350 -1100 435 -124 25 -130 25 -905 33
-753 8 -4878 10 -5000 3z"/>
<path d="M6757 6446 c-52 -19 -83 -50 -103 -102 -40 -104 21 -187 171 -234 66
-20 124 -58 131 -86 3 -13 1 -37 -6 -53 -19 -47 -50 -56 -182 -56 l-119 0 3
-40 3 -40 55 -8 c85 -13 194 -2 248 25 67 33 92 75 92 154 0 59 -3 67 -36 103
-27 31 -58 49 -132 77 -53 21 -107 48 -119 61 -28 27 -29 63 -4 94 18 23 26
24 138 25 l118 2 3 35 c4 43 -2 45 -126 52 -71 4 -107 2 -135 -9z"/>
<path d="M7280 6451 c-129 -42 -185 -139 -183 -316 2 -212 82 -308 258 -309
169 -1 244 64 265 231 11 88 -1 227 -24 270 -17 33 -81 95 -115 113 -29 15
-167 23 -201 11z m184 -106 c48 -32 56 -61 56 -207 0 -116 -3 -137 -20 -166
-29 -47 -80 -66 -159 -58 -71 6 -92 20 -122 78 -28 55 -27 242 1 299 32 61 71
81 151 76 40 -2 76 -11 93 -22z"/>
<path d="M8792 6446 c-65 -21 -111 -62 -141 -125 -24 -51 -26 -67 -26 -181 0
-97 4 -136 18 -172 49 -128 212 -180 380 -122 50 17 58 34 33 69 -12 17 -18
17 -71 7 -127 -26 -202 -7 -240 58 -17 30 -20 52 -20 160 0 115 2 128 24 164
34 54 70 66 196 66 103 0 105 0 105 23 0 50 -20 61 -121 64 -61 2 -109 -2
-137 -11z"/>
<path d="M6470 6140 l0 -310 45 0 45 0 0 310 0 310 -45 0 -45 0 0 -310z"/>
<path d="M7894 6442 c-9 -6 -227 -553 -236 -592 -4 -20 54 -26 70 -8 5 7 53
123 105 258 52 135 104 269 116 298 l21 52 -33 0 c-17 0 -37 -4 -43 -8z"/>
<path d="M8020 6140 l0 -310 45 0 45 0 0 310 0 310 -45 0 -45 0 0 -310z"/>
<path d="M8210 6140 l0 -310 191 0 190 0 -3 43 -3 42 -137 3 -138 3 0 94 0 95
115 0 115 0 0 40 0 40 -115 0 -115 0 0 85 0 84 138 3 137 3 3 43 3 42 -190 0
-191 0 0 -310z"/>
<path d="M2044 5740 c-83 -12 -231 -62 -323 -110 -229 -120 -422 -372 -488
-636 -20 -83 -25 -415 -6 -477 13 -43 114 -221 581 -1032 575 -996 1110 -1913
1145 -1959 13 -18 21 -8 109 140 171 286 1303 2246 1507 2609 134 237 141 262
141 475 0 147 -3 180 -25 266 -90 348 -369 623 -721 711 -105 26 -304 23 -419
-5 -193 -48 -385 -168 -514 -323 -30 -35 -57 -64 -61 -64 -4 0 -30 28 -58 62
-139 167 -332 286 -531 328 -87 18 -261 26 -337 15z m326 -360 c148 -50 285
-168 357 -306 41 -79 73 -179 73 -228 l0 -26 -620 0 -620 0 0 26 c0 127 117
335 242 432 66 51 191 111 255 122 81 15 240 5 313 -20z m1522 15 c86 -18 207
-81 280 -146 107 -94 189 -246 205 -377 l6 -52 -623 0 -622 0 7 58 c24 195
170 384 369 478 113 54 245 68 378 39z m-1286 -931 c21 -6 21 -6 4 -53 -26
-66 -50 -191 -50 -254 0 -63 30 -188 58 -244 61 -118 159 -212 382 -366 217
-149 304 -235 336 -329 12 -37 15 -79 12 -176 l-3 -129 -37 -56 c-46 -69 -119
-128 -195 -158 -85 -33 -240 -33 -341 0 -97 32 -181 87 -230 153 -38 50 -286
485 -705 1238 -102 184 -189 343 -192 352 -5 12 0 18 17 21 35 6 920 8 944 1z
m1677 -1 c2 -5 -135 -259 -306 -566 l-310 -558 -46 87 c-77 146 -195 258 -470
444 -121 83 -200 155 -222 205 -52 113 10 282 128 352 33 19 65 28 126 33 111
10 1095 12 1100 3z m-1247 -2254 c-34 -61 -66 -111 -71 -112 -10 0 -29 31 -99
156 l-38 67 135 0 136 0 -63 -111z"/>
<path d="M6510 5441 c-52 -17 -55 -19 -53 -50 0 -18 4 -35 7 -38 3 -3 35 0 71
7 154 29 233 -20 203 -129 -15 -54 -54 -104 -177 -229 -90 -92 -111 -119 -111
-143 l0 -29 200 0 200 0 0 45 0 45 -126 0 -126 0 95 100 c53 56 107 123 121
152 59 118 12 246 -101 277 -54 15 -139 12 -203 -8z"/>
<path d="M7487 5445 c-51 -18 -85 -50 -111 -105 -18 -39 -20 -63 -20 -190 1
-164 12 -215 55 -264 90 -103 290 -82 352 37 50 97 44 358 -10 446 -51 82
-162 114 -266 76z m152 -90 c45 -23 56 -64 56 -215 0 -193 -21 -230 -128 -230
-65 0 -90 22 -106 90 -13 54 -13 218 -2 280 12 60 47 90 107 90 25 0 58 -7 73
-15z"/>
<path d="M7997 5446 c-52 -19 -72 -39 -104 -104 -25 -51 -27 -64 -27 -186 0
-164 14 -226 63 -275 81 -81 232 -82 312 -2 50 50 62 99 63 266 1 162 -13 214
-69 264 -57 50 -158 65 -238 37z m168 -99 c33 -28 44 -79 44 -207 1 -112 -12
-177 -41 -207 -18 -19 -32 -23 -84 -23 -56 0 -65 3 -83 26 -35 44 -44 99 -38
236 5 133 13 159 59 185 39 21 113 16 143 -10z"/>
<path d="M6900 5410 l0 -40 150 0 c83 0 150 -2 150 -5 0 -3 -18 -41 -40 -85
-74 -147 -177 -421 -165 -440 3 -5 26 -10 50 -10 44 0 44 1 55 43 21 85 73
225 132 357 33 74 63 154 65 178 l6 42 -202 0 -201 0 0 -40z"/>
<path d="M8430 5426 c-30 -12 -70 -30 -88 -40 -32 -16 -32 -17 -17 -46 18 -36
20 -36 85 -10 28 11 53 20 55 20 3 0 5 -117 5 -260 l0 -260 45 0 45 0 0 310 0
310 -37 0 c-21 -1 -63 -11 -93 -24z"/>
<path d="M6450 4285 l0 -245 35 0 35 0 0 245 0 245 -35 0 -35 0 0 -245z"/>
<path d="M7010 4517 c-30 -15 -50 -52 -50 -93 0 -23 -6 -34 -26 -43 -31 -14
-29 -45 4 -49 22 -3 22 -6 22 -148 l0 -144 35 0 35 0 0 145 0 145 40 0 c32 0
40 4 40 19 0 23 -17 38 -50 43 -17 2 -26 10 -28 27 -5 31 9 43 55 50 32 5 38
10 38 31 0 23 -4 25 -45 28 -25 1 -56 -4 -70 -11z"/>
<path d="M8788 4519 c-25 -14 -23 -56 2 -64 39 -12 66 35 38 63 -14 14 -18 14
-40 1z"/>
<path d="M9795 4516 c-54 -24 -78 -60 -79 -117 -1 -46 2 -54 35 -83 20 -19 64
-43 101 -55 78 -26 108 -51 108 -91 0 -48 -29 -60 -143 -60 l-98 0 3 -32 c3
-27 8 -33 38 -41 48 -13 171 -2 209 17 45 24 65 60 65 122 1 47 -3 57 -30 84
-17 18 -60 42 -100 56 -79 29 -114 57 -114 91 0 34 52 53 145 53 73 0 75 1 75
25 0 14 -8 29 -19 35 -28 14 -160 12 -196 -4z"/>
<path d="M11246 4511 c-19 -21 -12 -48 15 -56 22 -7 49 10 49 31 0 14 -27 44
-39 44 -4 0 -15 -8 -25 -19z"/>
<path d="M8577 4484 c-4 -4 -7 -21 -7 -37 0 -20 -10 -38 -31 -58 -34 -31 -33
-59 1 -59 19 0 20 -6 20 -124 l0 -124 32 -27 c28 -24 38 -26 77 -21 56 8 68
18 54 49 -9 19 -17 23 -46 19 -43 -5 -47 7 -47 135 l0 92 48 3 c43 3 47 5 47
28 0 23 -4 25 -47 28 l-47 3 -3 47 c-2 38 -7 48 -23 50 -12 2 -24 0 -28 -4z"/>
<path d="M11390 4441 c0 -45 -2 -50 -30 -60 -36 -12 -39 -38 -6 -50 22 -9 23
-15 28 -125 6 -129 18 -160 67 -171 33 -7 111 11 111 25 0 19 -40 50 -64 50
-32 0 -36 15 -36 125 l0 94 43 3 c37 3 42 6 42 28 0 22 -5 25 -42 28 l-43 3 0
50 0 49 -35 0 -35 0 0 -49z"/>
<path d="M6701 4383 c-33 -12 -45 -13 -51 -3 -4 6 -18 10 -31 8 l-24 -3 -3
-172 -2 -173 40 0 40 0 0 135 0 135 26 10 c40 16 69 12 90 -11 16 -18 20 -40
22 -145 l4 -124 35 0 35 0 -4 138 c-3 85 -9 147 -17 163 -24 49 -92 66 -160
42z"/>
<path d="M7215 4385 c-75 -27 -101 -82 -93 -200 6 -104 55 -150 158 -150 104
1 143 51 144 182 1 68 -2 86 -20 110 -44 59 -122 83 -189 58z m109 -74 c39
-43 39 -170 0 -198 -28 -20 -88 -16 -109 7 -20 22 -31 103 -21 145 15 60 92
88 130 46z"/>
<path d="M7577 4377 c-43 -22 -46 -23 -50 -5 -3 11 -14 18 -31 18 l-26 0 0
-175 0 -175 35 0 35 0 0 129 c0 146 1 149 77 159 51 8 66 29 43 57 -17 20 -29
19 -83 -8z"/>
<path d="M7805 4384 c-29 -11 -45 -12 -57 -5 -10 6 -27 11 -38 11 -19 0 -20
-6 -20 -175 l0 -175 40 0 40 0 0 135 c0 125 1 135 20 145 12 6 35 10 53 8 44
-4 56 -43 56 -180 l1 -108 34 0 34 0 4 135 c3 151 6 157 68 153 50 -4 60 -30
60 -170 l0 -118 36 0 36 0 -3 149 c-4 162 -7 168 -66 196 -34 16 -39 16 -95
-1 -47 -14 -66 -15 -91 -7 -60 21 -72 21 -112 7z"/>
<path d="M8275 4392 c-25 -6 -31 -13 -33 -39 l-3 -32 74 6 c72 6 75 5 92 -21
27 -40 14 -56 -46 -56 -87 0 -149 -46 -149 -110 0 -80 102 -135 179 -96 17 9
32 11 42 5 8 -5 25 -9 38 -9 l23 0 -4 143 c-4 150 -12 182 -52 197 -33 12
-127 19 -161 12z m143 -239 c4 -38 -26 -63 -75 -63 -34 0 -53 21 -53 57 0 32
22 44 75 41 48 -3 50 -4 53 -35z"/>
<path d="M8992 4393 c-13 -2 -38 -19 -56 -37 -84 -85 -68 -263 28 -307 72 -33
145 -19 196 36 22 23 25 37 28 113 3 100 -13 145 -63 173 -33 19 -97 29 -133
22z m98 -83 c11 -11 22 -31 26 -45 10 -42 -1 -123 -21 -145 -26 -29 -80 -26
-112 6 -23 23 -25 31 -21 96 3 59 8 73 27 89 30 25 76 24 101 -1z"/>
<path d="M9343 4381 c-36 -17 -43 -17 -54 -5 -6 8 -20 14 -30 14 -18 0 -19
-10 -19 -175 l0 -175 35 0 35 0 0 135 0 135 26 10 c43 17 81 12 98 -12 12 -17
16 -50 16 -145 l0 -123 35 0 35 0 0 123 c0 181 -16 217 -100 231 -24 4 -48 0
-77 -13z"/>
<path d="M10175 4393 c-82 -21 -131 -134 -105 -242 21 -88 99 -133 199 -116
55 9 79 29 65 52 -10 15 -22 17 -72 15 -33 -2 -69 -1 -80 2 -23 8 -49 63 -36
76 5 5 52 10 104 12 l95 3 -3 55 c-2 30 -9 66 -15 79 -20 42 -102 77 -152 64z
m71 -71 c13 -8 34 -46 34 -61 0 -7 -26 -11 -65 -11 -52 0 -67 3 -72 17 -13 34
69 78 103 55z"/>
<path d="M10487 4389 c-59 -14 -77 -27 -98 -72 -40 -89 -12 -233 51 -264 26
-13 129 -17 168 -7 18 5 22 13 20 33 -3 25 -5 26 -60 23 -31 -2 -66 -1 -78 3
-40 13 -63 109 -41 168 18 46 38 57 107 57 64 0 64 0 64 29 0 25 -4 29 -37 35
-44 7 -46 7 -96 -5z"/>
<path d="M11131 4380 c-40 -18 -46 -19 -61 -5 -9 8 -24 15 -33 15 -15 0 -17
-18 -17 -175 l0 -175 34 0 34 0 4 134 c2 74 7 138 11 142 4 5 29 11 55 14 44
5 47 7 50 38 4 39 -12 41 -77 12z"/>
<path d="M8770 4215 l0 -175 35 0 35 0 0 175 0 175 -35 0 -35 0 0 -175z"/>
<path d="M10671 4263 c1 -71 4 -141 8 -157 10 -45 53 -71 114 -69 29 1 76 3
105 3 l52 1 0 175 0 174 -35 0 -35 0 0 -126 c0 -69 -5 -134 -10 -145 -8 -14
-21 -19 -53 -19 -70 0 -72 3 -75 155 l-4 135 -34 0 -34 0 1 -127z"/>
<path d="M11240 4215 l0 -175 35 0 35 0 0 175 0 175 -35 0 -35 0 0 -175z"/>
<path d="M11560 4386 c0 -3 20 -76 45 -163 32 -113 51 -163 67 -176 l22 -18
-21 -65 -22 -65 36 3 c42 3 40 -2 122 273 70 232 68 215 27 215 -35 0 -35 0
-56 -72 -52 -182 -62 -210 -68 -203 -4 3 -23 66 -42 138 l-35 132 -38 3 c-20
2 -37 1 -37 -2z"/>
<path d="M6457 3658 c-4 -40 -9 -148 -13 -240 l-7 -168 42 0 41 0 1 103 c1 56
4 140 7 187 l7 85 49 -137 c27 -76 54 -143 62 -148 7 -6 27 -10 44 -8 35 3 27
-13 106 203 l29 80 6 -50 c4 -27 8 -98 8 -157 1 -133 9 -158 52 -158 l32 0 -7
193 c-4 105 -9 213 -13 240 l-6 47 -52 0 -53 0 -48 -137 c-67 -196 -61 -180
-68 -163 -3 8 -28 78 -55 155 l-49 140 -54 3 -55 3 -6 -73z"/>
<path d="M9806 3692 c-3 -5 -8 -28 -12 -51 -5 -33 -13 -45 -31 -52 -30 -11
-27 -43 4 -47 20 -3 21 -9 24 -127 4 -114 6 -126 27 -147 17 -18 34 -23 72
-23 56 0 80 16 64 43 -6 9 -26 20 -44 23 -18 4 -36 13 -41 21 -5 7 -9 57 -9
110 l0 97 48 3 c43 3 47 5 47 28 0 23 -4 25 -47 28 l-47 3 -3 47 c-3 39 -7 47
-25 50 -11 2 -24 -1 -27 -6z"/>
<path d="M7000 3585 c-25 -30 -4 -45 62 -45 73 0 111 -19 106 -53 -2 -17 -11
-23 -38 -25 -72 -5 -100 -13 -130 -38 -26 -22 -30 -33 -30 -73 0 -37 6 -54 24
-74 29 -31 85 -43 135 -29 20 7 53 9 74 5 l37 -6 -1 129 c-2 169 -6 185 -49
206 -46 23 -172 25 -190 3z m170 -219 c0 -44 -22 -66 -65 -66 -39 0 -65 22
-65 55 0 31 24 44 83 45 47 0 47 0 47 -34z"/>
<path d="M7307 3593 c-4 -3 -7 -82 -7 -175 l0 -168 39 0 39 0 4 134 c2 74 5
137 8 140 3 3 24 8 46 12 67 10 74 -4 74 -157 l0 -129 41 0 41 0 -4 140 c-3
122 -6 143 -24 167 -29 38 -73 49 -142 35 -37 -8 -60 -8 -66 -2 -11 11 -39 13
-49 3z"/>
<path d="M7660 3585 c-25 -30 -4 -45 62 -45 73 0 111 -19 106 -53 -2 -17 -11
-23 -38 -25 -72 -5 -100 -13 -130 -38 -26 -22 -30 -33 -30 -73 0 -37 6 -54 24
-74 29 -31 85 -43 135 -29 20 7 53 9 74 5 l37 -6 -1 129 c-2 169 -6 185 -49
206 -46 23 -172 25 -190 3z m170 -219 c0 -44 -22 -66 -65 -66 -39 0 -65 22
-65 55 0 31 24 44 83 45 47 0 47 0 47 -34z"/>
<path d="M8025 3591 c-53 -22 -79 -93 -73 -197 3 -45 11 -83 22 -99 25 -38 80
-58 138 -51 l48 7 0 -30 c0 -39 -23 -51 -99 -51 -51 0 -62 -3 -72 -21 -14 -28
-2 -36 68 -45 66 -8 129 11 157 49 19 25 21 45 24 227 l4 198 -38 11 c-45 13
-150 13 -179 2z m129 -67 c10 -26 7 -184 -4 -205 -8 -14 -21 -19 -50 -19 -57
0 -70 24 -70 127 0 73 2 83 22 97 30 21 94 21 102 0z"/>
<path d="M8350 3583 c-53 -28 -73 -71 -73 -161 0 -97 18 -136 76 -163 47 -21
94 -24 149 -9 44 13 53 23 39 47 -8 15 -21 17 -79 15 -61 -3 -73 -1 -92 18
-12 12 -20 29 -18 38 3 14 19 17 100 20 l97 3 6 29 c10 44 -20 136 -51 156
-38 25 -112 29 -154 7z m123 -75 c33 -44 18 -59 -55 -56 -73 4 -86 21 -43 63
32 33 70 30 98 -7z"/>
<path d="M8600 3425 l0 -175 35 0 35 0 0 135 0 135 26 10 c85 33 104 4 104
-157 l0 -123 35 0 35 0 0 135 0 134 41 12 c78 24 99 -12 99 -168 l0 -113 35 0
35 0 0 143 c0 136 -1 145 -22 164 -52 47 -99 54 -167 27 -36 -14 -42 -14 -70
0 -36 19 -70 20 -123 4 -29 -9 -41 -9 -50 0 -7 7 -20 12 -30 12 -17 0 -18 -13
-18 -175z"/>
<path d="M9190 3583 c-53 -28 -73 -71 -73 -161 0 -97 18 -136 76 -163 47 -21
94 -24 149 -9 44 13 53 23 39 47 -8 15 -21 17 -79 15 -61 -3 -73 -1 -92 18
-12 12 -20 29 -18 38 3 14 19 17 100 20 l97 3 6 29 c10 44 -20 136 -51 156
-38 25 -112 29 -154 7z m123 -75 c33 -44 18 -59 -55 -56 -73 4 -86 21 -43 63
32 33 70 30 98 -7z"/>
<path d="M9440 3425 l0 -175 35 0 35 0 0 134 0 134 31 11 c89 31 109 0 109
-169 l0 -110 36 0 36 0 -4 146 -3 146 -33 29 c-36 32 -77 37 -144 17 -29 -9
-41 -9 -50 0 -7 7 -20 12 -30 12 -17 0 -18 -13 -18 -175z"/>
<path d="M6548 2774 c-53 -16 -92 -57 -108 -112 -15 -56 -13 -213 5 -255 35
-85 112 -124 220 -112 97 10 105 14 105 45 0 41 -17 49 -80 39 -114 -18 -158
18 -167 136 -6 75 9 134 43 166 23 22 34 24 110 23 l84 -2 0 34 c0 28 -5 36
-26 44 -36 14 -131 11 -186 -6z"/>
<path d="M7208 2783 l-28 -4 0 -240 0 -239 45 0 45 0 0 95 0 95 29 0 c36 0 54
-21 100 -118 l35 -72 52 0 52 0 -54 98 -54 97 35 30 c56 48 68 103 39 175 -24
60 -62 78 -175 84 -52 2 -106 2 -121 -1z m161 -83 c42 -12 51 -24 51 -71 0
-48 -16 -60 -90 -66 l-60 -6 0 70 c0 38 3 73 7 76 9 10 53 9 92 -3z"/>
<path d="M9013 2783 l-33 -4 0 -239 0 -239 36 -7 c20 -4 74 -4 121 -1 100 6
150 33 185 100 19 35 22 58 23 142 0 85 -3 107 -23 148 -35 71 -91 100 -196
103 -45 1 -96 0 -113 -3z m187 -93 c36 -19 53 -69 53 -150 1 -73 -9 -106 -41
-142 -21 -24 -127 -26 -136 -2 -9 23 -7 299 2 308 9 10 95 0 122 -14z"/>
<path d="M6830 2540 l0 -240 150 0 150 0 0 40 0 40 -89 0 c-121 0 -121 0 -121
71 l0 59 85 0 85 0 0 40 0 40 -85 0 -85 0 0 49 c0 60 3 61 121 61 l89 0 0 40
0 40 -150 0 -150 0 0 -240z"/>
<path d="M7540 2740 l0 -40 55 0 c50 0 56 -2 65 -26 6 -14 10 -104 10 -200 l0
-174 45 0 45 0 0 200 0 200 65 0 65 0 0 40 0 40 -175 0 -175 0 0 -40z"/>
<path d="M7930 2540 l0 -240 45 0 45 0 0 240 0 240 -45 0 -45 0 0 -240z"/>
<path d="M8100 2540 l0 -240 45 0 45 0 0 100 0 100 90 0 90 0 0 40 0 40 -90 0
-90 0 0 54 c0 40 4 55 16 60 9 3 58 6 110 6 l94 0 0 40 0 40 -155 0 -155 0 0
-240z"/>
<path d="M8460 2540 l0 -240 45 0 45 0 0 240 0 240 -45 0 -45 0 0 -240z"/>
<path d="M8630 2540 l0 -240 150 0 150 0 0 40 0 40 -89 0 c-121 0 -121 0 -121
71 l0 59 85 0 85 0 0 40 0 40 -85 0 -85 0 0 49 c0 60 3 61 121 61 l89 0 0 40
0 40 -150 0 -150 0 0 -240z"/>
<path d="M6979 745 c-52 -17 -115 -73 -135 -121 -33 -78 -3 -185 65 -229 20
-14 81 -36 135 -50 55 -14 112 -33 127 -42 36 -21 53 -63 46 -110 -19 -116
-191 -138 -340 -43 -26 16 -50 30 -52 30 -11 0 -4 -108 8 -118 6 -6 41 -20 77
-32 53 -18 82 -21 161 -18 86 3 101 6 145 33 70 43 108 117 101 198 -9 104
-53 142 -217 187 -126 34 -156 54 -166 108 -15 80 47 137 151 136 61 -1 152
-32 176 -60 21 -26 29 -14 29 44 l0 59 -52 17 c-73 24 -201 30 -259 11z"/>
<path d="M7922 741 c-97 -34 -174 -133 -201 -259 -16 -75 -14 -217 4 -285 28
-107 83 -165 177 -186 98 -22 200 28 251 123 17 32 22 58 22 121 0 100 -21
146 -89 193 -43 28 -56 32 -118 32 -48 0 -81 -6 -110 -20 -23 -11 -43 -18 -46
-15 -9 9 21 106 45 143 47 72 137 103 231 79 l32 -9 0 45 c0 32 -5 47 -16 51
-31 12 -130 5 -182 -13z m102 -362 c38 -30 56 -71 56 -129 0 -102 -47 -160
-131 -160 -89 0 -139 75 -139 211 l0 67 38 15 c56 24 143 22 176 -4z"/>
<path d="M9030 745 c-53 -16 -121 -72 -154 -124 -48 -76 -61 -137 -61 -281 0
-133 1 -137 33 -203 38 -77 78 -110 154 -126 139 -31 263 69 275 223 9 109
-27 185 -108 226 -53 27 -156 27 -209 0 -22 -11 -42 -20 -45 -20 -9 0 -6 24
10 78 17 57 62 115 107 138 34 18 108 23 156 11 l32 -9 0 45 c0 32 -5 47 -16
51 -27 10 -127 5 -174 -9z m89 -360 c37 -19 61 -71 61 -134 0 -104 -47 -161
-133 -161 -43 0 -54 4 -81 34 -40 41 -56 94 -56 179 l0 65 38 15 c47 20 135
21 171 2z"/>
<path d="M10550 742 l-55 -18 -3 -53 c-2 -29 1 -51 5 -49 110 54 160 65 221
49 52 -14 72 -43 72 -101 -1 -70 -36 -103 -119 -110 l-56 -5 0 -40 0 -40 60
-5 c74 -7 103 -22 121 -65 27 -66 11 -137 -41 -185 -23 -22 -36 -25 -98 -25
-57 0 -84 6 -129 27 l-58 27 0 -50 c0 -47 2 -51 34 -64 58 -25 158 -36 217
-25 102 19 175 99 187 205 9 83 -45 174 -114 191 -33 8 -30 16 13 39 56 30 83
77 83 144 0 69 -30 119 -87 147 -54 26 -181 29 -253 6z"/>
<path d="M6454 736 c-3 -8 -4 -25 -2 -38 3 -20 9 -23 51 -26 l47 -3 0 -290 0
-289 -50 0 -50 0 0 -35 0 -35 145 0 145 0 0 35 c0 35 0 35 -45 35 l-45 0 0
290 0 290 45 0 45 0 0 40 0 40 -140 0 c-113 0 -142 -3 -146 -14z"/>
<path d="M8310 561 l0 -188 43 8 c65 12 144 10 180 -5 50 -21 70 -50 75 -110
13 -155 -108 -218 -273 -142 l-55 25 0 -54 0 -54 58 -17 c31 -10 89 -17 128
-17 150 0 244 96 244 252 0 74 -31 136 -88 175 -37 26 -52 30 -132 34 l-90 4
0 94 0 94 155 0 155 0 0 45 0 45 -200 0 -200 0 0 -189z"/>
<path d="M9503 562 l-163 -187 0 -52 0 -53 160 0 160 0 0 -125 0 -125 45 0 45
0 0 125 0 125 45 0 45 0 0 40 0 40 -45 0 -45 0 0 200 0 200 -42 0 -43 0 -162
-188z m154 -209 c-3 -2 -56 -2 -120 -1 l-115 3 116 137 117 136 3 -135 c1 -75
1 -138 -1 -140z"/>
<path d="M9960 561 l0 -188 43 8 c65 13 144 10 181 -5 53 -22 76 -60 76 -125
0 -147 -116 -200 -274 -128 l-56 26 0 -54 0 -54 58 -17 c31 -10 89 -17 128
-17 153 0 242 91 244 248 0 78 -29 139 -88 179 -37 26 -52 30 -132 34 l-90 4
0 94 0 94 155 0 155 0 0 45 0 45 -200 0 -200 0 0 -189z"/>
</g>
</svg>
