<?xml version="1.0" encoding="UTF-8"?><svg id="a" xmlns="http://www.w3.org/2000/svg" viewBox="0 0 195 195"><defs><style>.d{fill:#2979ff;}</style></defs><g id="b"><path id="c" class="d" d="M152.29,134.57h-54.79c-20.44,0-37.07-16.63-37.07-37.07s16.63-37.07,37.07-37.07,37.07,16.63,37.07,37.07v3.72c0,9.77,7.95,17.71,17.71,17.71s17.71-7.95,17.71-17.71v-4.14c-.12-19.28-7.71-37.38-21.38-50.98-13.68-13.6-31.83-21.09-51.12-21.09-39.98,0-72.5,32.52-72.5,72.5s32.52,72.5,72.5,72.5h54.79c9.77,0,17.71-7.95,17.71-17.71s-7.95-17.71-17.71-17.71Z"/></g></svg>